<?xml version="1.0" encoding="UTF-8"?>
<svg version="1.1" xmlns="http://www.w3.org/2000/svg" width="335" height="335">
<path d="M0 0 C21.23953035 18.40248117 34.92515723 43.76956349 37 72 C38.45638704 100.39286662 30.28103995 128.05479972 11.4765625 149.75830078 C-7.27736412 170.52558256 -32.9255356 183.66253336 -61.07519531 185.10644531 C-90.68670937 186.00376392 -118.60288103 176.60339054 -140.38012695 156.1394043 C-159.62445748 137.35259129 -171.34962652 111.89982485 -172.16796875 84.89453125 C-172.50468907 54.96987044 -162.44305678 27.3936297 -141.375 5.8125 C-103.3633749 -31.70459793 -41.17982194 -33.99515274 0 0 Z " fill="#1C4095" transform="translate(235,87)"/>
<path d="M0 0 C3.55056997 3.14013711 6.99952087 6.3787781 10.43261719 9.64648438 C11.0784375 10.23945312 11.72425781 10.83242188 12.38964844 11.44335938 C38.32685548 35.98348033 54.5356424 75.03073457 55.66113281 110.41760254 C56.81831131 156.32705226 43.93657485 197.1393868 11.97949219 230.97070312 C10.71878906 232.29521484 10.71878906 232.29521484 9.43261719 233.64648438 C8.54316406 234.61521484 8.54316406 234.61521484 7.63574219 235.60351562 C-16.90437877 261.54072267 -55.95163301 277.74950959 -91.33850098 278.875 C-137.24795069 280.0321785 -178.06028523 267.15044204 -211.89160156 235.19335938 C-212.77460938 234.35289062 -213.65761719 233.51242187 -214.56738281 232.64648438 C-215.53611328 231.75703125 -215.53611328 231.75703125 -216.52441406 230.84960938 C-242.46162111 206.30948842 -258.67040803 167.26223418 -259.79589844 131.87536621 C-260.95307694 85.96591649 -248.07134048 45.15358195 -216.11425781 11.32226562 C-215.27378906 10.43925781 -214.43332031 9.55625 -213.56738281 8.64648438 C-212.97441406 8.00066406 -212.38144531 7.35484375 -211.77050781 6.68945312 C-157.49689135 -50.67399794 -58.15776955 -50.22222343 0 0 Z M-134.56738281 -27.35351562 C-135.31246094 -27.18722656 -136.05753906 -27.0209375 -136.82519531 -26.84960938 C-175.46986807 -17.88563889 -209.67527255 7.08160178 -230.75146484 40.52539062 C-240.91348268 57.13941559 -247.61778871 74.60394937 -251.56738281 93.64648438 C-251.81359375 94.77570313 -252.05980469 95.90492188 -252.31347656 97.06835938 C-255.62505082 115.43046769 -254.65495829 135.49378699 -250.56738281 153.64648438 C-250.40109375 154.3915625 -250.23480469 155.13664063 -250.06347656 155.90429688 C-241.09950608 194.54896964 -216.1322654 228.75437411 -182.68847656 249.83056641 C-166.0744516 259.99258424 -148.60991782 266.69689027 -129.56738281 270.64648438 C-128.43816406 270.89269531 -127.30894531 271.13890625 -126.14550781 271.39257812 C-107.7833995 274.70415239 -87.7200802 273.73405985 -69.56738281 269.64648438 C-68.82230469 269.48019531 -68.07722656 269.31390625 -67.30957031 269.14257812 C-28.66489755 260.17860764 5.54050693 235.21136697 26.61669922 201.76757812 C36.77871705 185.15355316 43.48302308 167.68901938 47.43261719 148.64648438 C47.67882812 147.51726562 47.92503906 146.38804687 48.17871094 145.22460938 C51.4902852 126.86250106 50.52019266 106.79918176 46.43261719 88.64648438 C46.26632812 87.90140625 46.10003906 87.15632813 45.92871094 86.38867188 C36.96474045 47.74399911 11.99749978 13.53859464 -21.44628906 -7.53759766 C-38.06031402 -17.69961549 -55.5248478 -24.40392152 -74.56738281 -28.35351562 C-75.69660156 -28.59972656 -76.82582031 -28.8459375 -77.98925781 -29.09960938 C-96.35136613 -32.41118364 -116.41468543 -31.4410911 -134.56738281 -27.35351562 Z " fill="#1B3F95" transform="translate(269.5673828125,46.353515625)"/>
<path d="M0 0 C0.67282013 0.00304138 1.34564026 0.00608276 2.03884888 0.00921631 C13.03037548 0.08238584 23.21893608 1.02469063 33.6875 4.4375 C34.35700684 4.64648926 35.02651367 4.85547852 35.71630859 5.07080078 C50.95023632 9.92572881 64.90291612 17.58550909 76.6875 28.4375 C77.47036377 29.15679687 77.47036377 29.15679687 78.26904297 29.890625 C98.96721023 49.1255308 112.73535971 74.83393624 114.9909668 103.26220703 C115.12267554 107.09683414 115.15537931 110.91328666 115.125 114.75 C115.12043793 115.75923019 115.12043793 115.75923019 115.11578369 116.78884888 C115.04261416 127.78037548 114.10030937 137.96893608 110.6875 148.4375 C110.37401611 149.44176025 110.37401611 149.44176025 110.05419922 150.46630859 C105.19927119 165.70023632 97.53949091 179.65291612 86.6875 191.4375 C86.20796875 191.95940918 85.7284375 192.48131836 85.234375 193.01904297 C65.9994692 213.71721023 40.29106376 227.48535971 11.86279297 229.7409668 C8.02816586 229.87267554 4.21171334 229.90537931 0.375 229.875 C-0.29782013 229.87195862 -0.97064026 229.86891724 -1.66384888 229.86578369 C-12.65537548 229.79261416 -22.84393608 228.85030937 -33.3125 225.4375 C-34.31676025 225.12401611 -34.31676025 225.12401611 -35.34130859 224.80419922 C-50.57523632 219.94927119 -64.52791612 212.28949091 -76.3125 201.4375 C-76.83440918 200.95796875 -77.35631836 200.4784375 -77.89404297 199.984375 C-98.35424583 180.97061065 -112.38449022 154.75089761 -114.6159668 126.6105957 C-114.74772674 122.77670261 -114.78037351 118.96098198 -114.75 115.125 C-114.74695862 114.45217987 -114.74391724 113.77935974 -114.74078369 113.08615112 C-114.66761416 102.09462452 -113.72530937 91.90606392 -110.3125 81.4375 C-109.99901611 80.43323975 -109.99901611 80.43323975 -109.67919922 79.40869141 C-104.82427119 64.17476368 -97.16449091 50.22208388 -86.3125 38.4375 C-85.83296875 37.91559082 -85.3534375 37.39368164 -84.859375 36.85595703 C-62.73749794 13.05119728 -32.58282256 -0.25799256 0 0 Z M-75.3125 36.4375 C-75.97507813 37.01886719 -76.63765625 37.60023437 -77.3203125 38.19921875 C-91.13420257 50.95297307 -100.3504077 69.58148603 -105.3125 87.4375 C-105.6321875 88.55898437 -105.951875 89.68046875 -106.28125 90.8359375 C-113.23734226 119.49761394 -106.58473722 148.62189866 -91.80859375 173.56640625 C-87.96159064 179.7428722 -83.23186082 185.10252498 -78.3125 190.4375 C-77.73113281 191.10007813 -77.14976563 191.76265625 -76.55078125 192.4453125 C-63.79702693 206.25920257 -45.16851397 215.4754077 -27.3125 220.4375 C-26.19101563 220.7571875 -25.06953125 221.076875 -23.9140625 221.40625 C4.74761394 228.36234226 33.87189866 221.70973722 58.81640625 206.93359375 C64.9928722 203.08659064 70.35252498 198.35686082 75.6875 193.4375 C76.35007813 192.85613281 77.01265625 192.27476562 77.6953125 191.67578125 C91.50920257 178.92202693 100.7254077 160.29351397 105.6875 142.4375 C106.0071875 141.31601563 106.326875 140.19453125 106.65625 139.0390625 C113.61234226 110.37738606 106.95973722 81.25310134 92.18359375 56.30859375 C88.33659064 50.1321278 83.60686082 44.77247502 78.6875 39.4375 C77.81544922 38.44363281 77.81544922 38.44363281 76.92578125 37.4296875 C64.17202693 23.61579743 45.54351397 14.3995923 27.6875 9.4375 C26.00527344 8.95796875 26.00527344 8.95796875 24.2890625 8.46875 C-11.64978661 -0.25348754 -48.65762939 11.85914198 -75.3125 36.4375 Z " fill="#1B3F95" transform="translate(167.3125,52.5625)"/>
<path d="M0 0 C5.2231645 1.74105483 7.36565429 4.21915038 10 9 C11.39519346 13.50334891 11.22260627 18.01344403 11.25 22.6875 C11.270625 23.54794922 11.29125 24.40839844 11.3125 25.29492188 C11.35722731 32.71406453 10.24164576 39.10945678 5.625 45.0625 C0.85840087 48.51169736 -5.45843949 47.73323447 -11 47 C-14.57118365 45.58384097 -16.21671617 44.64788268 -17.87719727 41.15454102 C-19.98304734 35.12971695 -20.42692306 29.72776836 -20.3125 23.375 C-20.31572266 22.47265625 -20.31894531 21.5703125 -20.32226562 20.640625 C-20.22651928 8.69844456 -20.22651928 8.69844456 -16.5625 4.2578125 C-10.70950262 0.0143894 -7.16818921 -0.5955111 0 0 Z " fill="#F6F7FB" transform="translate(202,124)"/>
<path d="M0 0 C2.55189718 1.35887188 4.53759344 2.81737731 6.30078125 5.1171875 C7.03088332 7.87535086 6.99230915 10.40357372 6.86328125 13.2421875 C3.89328125 13.2421875 0.92328125 13.2421875 -2.13671875 13.2421875 C-2.46671875 11.2621875 -2.79671875 9.2821875 -3.13671875 7.2421875 C-5.77671875 7.2421875 -8.41671875 7.2421875 -11.13671875 7.2421875 C-11.47052689 10.61654936 -11.47052689 10.61654936 -11.13671875 14.2421875 C-7.42541835 17.74976497 -2.49456423 19.52130733 2.0859375 21.64453125 C4.95876315 23.2971131 6.3066656 24.34002274 7.86328125 27.2421875 C8.59322033 32.04404167 8.44607978 36.68805809 6.73828125 41.2421875 C3.50165467 44.69458919 0.05707005 46.09313176 -4.609375 46.67578125 C-5.79402344 46.67707031 -6.97867188 46.67835938 -8.19921875 46.6796875 C-9.38644531 46.69902344 -10.57367188 46.71835938 -11.796875 46.73828125 C-15.71666959 46.15604276 -17.32553935 44.97158714 -20.13671875 42.2421875 C-22.6533946 38.76677799 -22.29750268 35.42256973 -22.13671875 31.2421875 C-18.83671875 31.2421875 -15.53671875 31.2421875 -12.13671875 31.2421875 C-11.47671875 33.5521875 -10.81671875 35.8621875 -10.13671875 38.2421875 C-7.49671875 38.2421875 -4.85671875 38.2421875 -2.13671875 38.2421875 C-2.13671875 35.9321875 -2.13671875 33.6221875 -2.13671875 31.2421875 C-3.18472656 30.69949219 -4.23273438 30.15679687 -5.3125 29.59765625 C-6.69155919 28.87529191 -8.07045704 28.15261949 -9.44921875 27.4296875 C-10.13951172 27.07326172 -10.82980469 26.71683594 -11.54101562 26.34960938 C-12.54165039 25.82270508 -12.54165039 25.82270508 -13.5625 25.28515625 C-14.17520752 24.96571045 -14.78791504 24.64626465 -15.41918945 24.31713867 C-18.58056223 22.33852825 -19.94664185 20.81241819 -21.13671875 17.2421875 C-21.62679338 13.17456805 -22.06178159 9.05901092 -20.16015625 5.32421875 C-15.00866382 -1.07564148 -7.72175545 -2.73861162 0 0 Z " fill="#F7F8FB" transform="translate(165.13671875,124.7578125)"/>
<path d="M0 0 C0.08636719 1.09957031 0.17273438 2.19914062 0.26171875 3.33203125 C1.08613445 12.4119114 2.43110959 19.92596848 7 28 C4.35261084 29.4606285 3.10551666 30 0 30 C-0.34998047 29.18208984 -0.34998047 29.18208984 -0.70703125 28.34765625 C-4.25639198 21.01063849 -9.52874966 16.79393852 -16 12 C-15.68192383 12.93066284 -15.68192383 12.93066284 -15.35742188 13.88012695 C-14.40024341 16.68934057 -13.45004925 19.50086777 -12.5 22.3125 C-12.16613281 23.28896484 -11.83226562 24.26542969 -11.48828125 25.27148438 C-11.17246094 26.20927734 -10.85664063 27.14707031 -10.53125 28.11328125 C-10.09135742 29.40939331 -10.09135742 29.40939331 -9.64257812 30.73168945 C-9 33 -9 33 -9 36 C-11.31 36.66 -13.62 37.32 -16 38 C-18.31 35.03 -20.62 32.06 -23 29 C-22.01 34.445 -22.01 34.445 -21 40 C-23.97 40.495 -23.97 40.495 -27 41 C-28.34386556 37.4205283 -29.67323814 33.83584287 -31 30.25 C-31.3815625 29.23421875 -31.763125 28.2184375 -32.15625 27.171875 C-32.5171875 26.1921875 -32.878125 25.2125 -33.25 24.203125 C-33.58515625 23.30239258 -33.9203125 22.40166016 -34.265625 21.47363281 C-35 19 -35 19 -35 15 C-32.69 14.34 -30.38 13.68 -28 13 C-25.69 15.97 -23.38 18.94 -21 22 C-21.66 18.37 -22.32 14.74 -23 11 C-15.578125 6.8984375 -15.578125 6.8984375 -13 6 C-9.72558214 7.01578656 -8.50578246 8.49421754 -6 11 C-6 8.03 -6 5.06 -6 2 C-2 0 -2 0 0 0 Z M-25 26 C-24 28 -24 28 -24 28 Z " fill="#1B3F95" transform="translate(234,268)"/>
<path d="M0 0 C1.4800841 0.11362262 2.95910074 0.24122908 4.4375 0.375 C5.26121094 0.44460938 6.08492187 0.51421875 6.93359375 0.5859375 C7.95646484 0.79089844 7.95646484 0.79089844 9 1 C11.05527415 5.11054831 10.66606946 10.51578995 11 15 C12.65 10.71 14.3 6.42 16 2 C18.64 2.33 21.28 2.66 24 3 C24.84386383 6.48915651 25.03303309 9.21670146 24.4765625 12.7578125 C24.3425 13.63050781 24.2084375 14.50320313 24.0703125 15.40234375 C23.92335937 16.30082031 23.77640625 17.19929688 23.625 18.125 C23.48578125 19.03121094 23.3465625 19.93742187 23.203125 20.87109375 C22.65360613 24.37038843 22.1224254 27.6327238 21 31 C19.02 30.67 17.04 30.34 15 30 C15.33 26.37 15.66 22.74 16 19 C15.38125 20.629375 14.7625 22.25875 14.125 23.9375 C12.25 28.875 12.25 28.875 10 30 C8.68 29.67 7.36 29.34 6 29 C5.67 25.37 5.34 21.74 5 18 C4.34 21.3 3.68 24.6 3 28 C1.02 28 -0.96 28 -3 28 C-2.45462284 18.55636393 -1.46291615 9.34561968 0 0 Z " fill="#1B3F95" transform="translate(137,284)"/>
<path d="M0 0 C0.7528125 -0.01289063 1.505625 -0.02578125 2.28125 -0.0390625 C5.69626276 0.98303639 6.7081365 2.58644848 8.5 5.625 C8.86818379 8.45450693 9.01783406 10.81589943 8.9375 13.625 C8.94458984 14.32367188 8.95167969 15.02234375 8.95898438 15.7421875 C8.90444513 20.18923333 8.2326821 23.09723436 5.5 26.625 C2.36599115 28.19200442 -1.13155095 28.47664561 -4.5 27.625 C-7.58187959 24.86752879 -8.73814204 22.63451952 -9.03125 18.59375 C-9.04179572 17.10416757 -9.03086632 15.61429993 -9 14.125 C-9.01546875 13.37863281 -9.0309375 12.63226563 -9.046875 11.86328125 C-9.01984033 8.04463465 -8.71654718 5.99525701 -6.75 2.6328125 C-4.25670041 0.4078889 -3.29043044 -0.05634299 0 0 Z " fill="#F2F4F9" transform="translate(199.5,182.375)"/>
<path d="M0 0 C2.0319491 3.70531895 2.0625 7.78770807 2.0625 11.9375 C2.84336565 13.81436636 3.68378571 15.66690435 4.5625 17.5 C7.0625 22.72916667 7.0625 22.72916667 7.0625 24.9375 C4.7525 25.2675 2.4425 25.5975 0.0625 25.9375 C-2.9375 19.3125 -2.9375 19.3125 -2.9375 15.9375 C-4.5875 15.9375 -6.2375 15.9375 -7.9375 15.9375 C-7.586875 16.989375 -7.23625 18.04125 -6.875 19.125 C-5.98779473 22.7329681 -5.88487118 24.46382489 -6.9375 27.9375 C-8.5875 27.9375 -10.2375 27.9375 -11.9375 27.9375 C-13.99616506 22.42917997 -15.00832244 16.82533733 -16.0625 11.0625 C-16.24425781 10.08796875 -16.42601562 9.1134375 -16.61328125 8.109375 C-17.05846813 5.71942438 -17.49975969 3.32882373 -17.9375 0.9375 C-4.65593771 -2.55325616 -4.65593771 -2.55325616 0 0 Z M-8.9375 3.9375 C-9.93967064 7.52077753 -9.93967064 7.52077753 -8.9375 10.9375 C-7.6175 10.6075 -6.2975 10.2775 -4.9375 9.9375 C-4.9375 8.2875 -4.9375 6.6375 -4.9375 4.9375 C-6.2575 4.6075 -7.5775 4.2775 -8.9375 3.9375 Z " fill="#1B3F95" transform="translate(145.9375,25.0625)"/>
<path d="M0 0 C3.21850007 1.19861382 5.96970744 2.48244256 8.75 4.5 C9.34296875 4.9228125 9.9359375 5.345625 10.546875 5.78125 C12 7 12 7 13 9 C13.35346116 16.26900551 10.66095244 21.56404142 6 27 C3.66065332 28.98013797 2.39029039 29.91636635 -0.625 30.5625 C-5.78881943 29.70186343 -9.68670574 26.86416378 -14 24 C-9.65326066 15.78400405 -4.93181144 7.8733741 0 0 Z M3 8 C1.63304778 10.09679104 0.28153009 12.2010938 -1.0625 14.3125 C-1.45244141 14.90740234 -1.84238281 15.50230469 -2.24414062 16.11523438 C-3.24211495 17.69609635 -4.12868696 19.34594712 -5 21 C-4.67 21.99 -4.34 22.98 -4 24 C-1.65851769 24.12213894 -1.65851769 24.12213894 1 23 C4.21314655 19.19050769 6.52940133 15.01971915 7 10 C5.68 9.34 4.36 8.68 3 8 Z " fill="#1B3F95" transform="translate(234,37)"/>
<path d="M0 0 C2.97 0 5.94 0 9 0 C9 14.85 9 29.7 9 45 C6.03 45 3.06 45 0 45 C0 30.15 0 15.3 0 0 Z " fill="#FFFFFF" transform="translate(124,125)"/>
<path d="M0 0 C1.15628906 -0.04253906 1.15628906 -0.04253906 2.3359375 -0.0859375 C5.64889733 0.58117728 6.69791323 1.59912894 8.625 4.375 C8.99883922 7.33922121 9.14057889 9.86313279 9.0625 12.8125 C9.06958984 13.56337891 9.07667969 14.31425781 9.08398438 15.08789062 C9.03187157 19.64575698 8.54386318 22.67111249 5.625 26.375 C2.53326248 27.92086876 0.03070448 27.66859521 -3.375 27.375 C-6.08178118 25.30109931 -7.21631261 24.00518958 -8.0546875 20.67578125 C-8.46667026 14.37244508 -8.6721109 8.36629509 -6.375 2.375 C-3.98213116 -0.01786884 -3.28052906 0.05449384 0 0 Z " fill="#F8F9FB" transform="translate(117.375,182.625)"/>
<path d="M0 0 C1.299375 -0.01546875 1.299375 -0.01546875 2.625 -0.03125 C5 0.5 5 0.5 6.78125 1.97265625 C8.60787191 5.76055489 8.51334615 9.28351077 8.5 13.4375 C8.52835938 14.23607422 8.55671875 15.03464844 8.5859375 15.85742188 C8.60027981 20.18521429 8.39286912 21.98415155 5.69140625 25.53125 C3 27.5 3 27.5 -0.5625 28.0625 C-4 27.5 -4 27.5 -6.1875 26.05859375 C-8.92888872 22.18874544 -8.54563218 18.62526661 -8.4375 14 C-8.44458984 13.14535156 -8.45167969 12.29070312 -8.45898438 11.41015625 C-8.42283516 7.84528712 -8.32425675 5.18396279 -6.78515625 1.9375 C-4.43027237 0.04122589 -3.0024525 -0.03574348 0 0 Z " fill="#F9FAFC" transform="translate(136,182.5)"/>
<path d="M0 0 C3.38121991 2.44598887 4.76936783 3.89296559 5.625 8 C5.15236927 14.28320852 2.57919381 22.41547727 -1.890625 26.89453125 C-5.61132556 28.84445395 -9.05748232 28.03445877 -13 27 C-15.5625 25.5 -15.5625 25.5 -17 23 C-18.60740514 15.70485359 -15.77122176 8.20156467 -12 2 C-7.71416225 -1.22970921 -5.19708906 -1.48488259 0 0 Z M-6 5 C-6.87042243 6.88842514 -7.72075474 8.78611902 -8.5625 10.6875 C-9.03816406 11.74324219 -9.51382813 12.79898437 -10.00390625 13.88671875 C-11.05741372 17.17944602 -11.15703797 18.77308506 -10 22 C-9.34 22.33 -8.68 22.66 -8 23 C-5.12229903 20.54403107 -4.03312874 18.09110405 -2.75 14.5625 C-2.39421875 13.61503906 -2.0384375 12.66757812 -1.671875 11.69140625 C-0.98533614 8.94125929 -1.03377102 7.61996705 -2 5 C-3.32 5 -4.64 5 -6 5 Z " fill="#1B3F95" transform="translate(130,280)"/>
<path d="M0 0 C2.25390625 1.46875 2.25390625 1.46875 4 4 C4.55740394 7.0140543 4.51317535 9.94369243 4.4375 13 C4.44458984 13.80695313 4.45167969 14.61390625 4.45898438 15.4453125 C4.42127729 18.96077309 4.33892811 21.36759769 2.66015625 24.5 C0.07542696 26.83537894 -2.06519552 27.00465682 -5.5 27.25 C-9 27 -9 27 -10.9375 25.75 C-12 24 -12 24 -12 20 C-10.35 20 -8.7 20 -7 20 C-6.67 20.66 -6.34 21.32 -6 22 C-4.68 21.67 -3.36 21.34 -2 21 C-2 19.68 -2 18.36 -2 17 C-3.0725 17.2475 -4.145 17.495 -5.25 17.75 C-9 18 -9 18 -11.4375 16.6875 C-13.84264932 12.55064317 -13.73604145 8.66417848 -13 4 C-10.31015031 -0.91189943 -5.12081193 -1.2261099 0 0 Z " fill="#F3F5F9" transform="translate(104,183)"/>
<path d="M0 0 C2.625 0.3125 2.625 0.3125 4.26416016 1.97460938 C5.94150734 4.85625211 6.01220687 6.70912398 6.0234375 10.03125 C6.02730469 11.12824219 6.03117188 12.22523438 6.03515625 13.35546875 C6.02355469 14.49628906 6.01195312 15.63710937 6 16.8125 C6.01160156 17.95332031 6.02320313 19.09414062 6.03515625 20.26953125 C6.03128906 21.36652344 6.02742187 22.46351563 6.0234375 23.59375 C6.02005371 24.59470703 6.01666992 25.59566406 6.01318359 26.62695312 C5.56575808 29.72234974 4.81467282 31.10289183 2.625 33.3125 C-0.375 33.875 -0.375 33.875 -3.375 33.3125 C-7.50711799 28.72449106 -6.8184209 23.12067417 -6.75 17.3125 C-6.76160156 16.32765625 -6.77320313 15.3428125 -6.78515625 14.328125 C-6.73065958 0.8856131 -6.73065958 0.8856131 0 0 Z " fill="#234698" transform="translate(197.375,130.6875)"/>
<path d="M0 0 C1.83944626 3.95552103 3.67051553 7.91486285 5.5 11.875 C6.02464844 13.00292969 6.54929688 14.13085938 7.08984375 15.29296875 C7.58613281 16.36933594 8.08242187 17.44570313 8.59375 18.5546875 C9.05458984 19.54968262 9.51542969 20.54467773 9.99023438 21.56982422 C11 24 11 24 11 26 C8.69 26.33 6.38 26.66 4 27 C3.67 25.35 3.34 23.7 3 22 C1.02 22.33 -0.96 22.66 -3 23 C-3.66 24.98 -4.32 26.96 -5 29 C-6.98 29 -8.96 29 -11 29 C-10.69365616 24.89534933 -10.37887415 20.79138878 -10.0625 16.6875 C-9.97548828 15.52025391 -9.88847656 14.35300781 -9.79882812 13.15039062 C-9.71181641 12.03212891 -9.62480469 10.91386719 -9.53515625 9.76171875 C-9.456604 8.73006592 -9.37805176 7.69841309 -9.29711914 6.63549805 C-9 4 -9 4 -8 1 C-5.29120665 -0.35439668 -2.99066732 -0.06501451 0 0 Z M-3 10 C-3.33 12.31 -3.66 14.62 -4 17 C-2.68 16.67 -1.36 16.34 0 16 C-0.66 14.02 -1.32 12.04 -2 10 C-2.33 10 -2.66 10 -3 10 Z " fill="#1B3F95" transform="translate(193,285)"/>
<path d="M0 0 C0.6875 2.0625 0.6875 2.0625 1 4 C-4.625 7 -4.625 7 -8 7 C-7.01 8.32 -6.02 9.64 -5 11 C-2.69 10.34 -0.38 9.68 2 9 C4 12 4 12 4 15 C1.36 15.66 -1.28 16.32 -4 17 C-3.34 18.65 -2.68 20.3 -2 22 C-1.0925 21.67 -0.185 21.34 0.75 21 C4 20 4 20 8 20 C8.33 21.65 8.66 23.3 9 25 C7.08717875 25.84212256 5.16957527 26.67338864 3.25 27.5 C2.18265625 27.9640625 1.1153125 28.428125 0.015625 28.90625 C-3 30 -3 30 -7 30 C-8.50827797 26.23242503 -10.00518994 22.46043651 -11.5 18.6875 C-11.92925781 17.61564453 -12.35851562 16.54378906 -12.80078125 15.43945312 C-13.40986328 13.89741211 -13.40986328 13.89741211 -14.03125 12.32421875 C-14.40830078 11.37635498 -14.78535156 10.42849121 -15.17382812 9.4519043 C-16 7 -16 7 -16 4 C-13.90049414 3.13444052 -11.7952093 2.28288723 -9.6875 1.4375 C-8.51574219 0.96183594 -7.34398438 0.48617188 -6.13671875 -0.00390625 C-3 -1 -3 -1 0 0 Z " fill="#1B3F95" transform="translate(124,29)"/>
<path d="M0 0 C3.6754537 0.50851286 6.89475386 1.6498316 10.3125 3.0625 C11.19550781 3.42472656 12.07851562 3.78695312 12.98828125 4.16015625 C13.98408203 4.57587891 13.98408203 4.57587891 15 5 C14.34 6.65 13.68 8.3 13 10 C12.2575 9.835 11.515 9.67 10.75 9.5 C7.80993422 8.88074304 7.80993422 8.88074304 4 9 C4 9.99 4 10.98 4 12 C5.98 12.99 7.96 13.98 10 15 C9.67 16.65 9.34 18.3 9 20 C8.2575 19.835 7.515 19.67 6.75 19.5 C3.80993422 18.88074304 3.80993422 18.88074304 0 19 C-0.66 20.32 -1.32 21.64 -2 23 C0.97 23.99 3.94 24.98 7 26 C6.67 27.65 6.34 29.3 6 31 C0.23955788 30.39363767 -4.72014369 28.24341721 -10 26 C-9.39038113 22.53471696 -8.49835807 19.43465819 -7.1875 16.171875 C-6.83429688 15.29015625 -6.48109375 14.4084375 -6.1171875 13.5 C-5.74851563 12.5925 -5.37984375 11.685 -5 10.75 C-4.63132813 9.82703125 -4.26265625 8.9040625 -3.8828125 7.953125 C-1.13585283 1.13585283 -1.13585283 1.13585283 0 0 Z " fill="#1B3F95" transform="translate(214,29)"/>
<path d="M0 0 C2.50963523 2.50963523 3 3.40643594 3 7 C1.35 7.66 -0.3 8.32 -2 9 C-2.45375 8.505 -2.9075 8.01 -3.375 7.5 C-4.87635519 5.77390663 -4.87635519 5.77390663 -7 6 C-6.68383092 12.16529701 -3.50784939 16.17268433 0 21 C0.99 20.67 1.98 20.34 3 20 C2.67 18.02 2.34 16.04 2 14 C3.65 13.01 5.3 12.02 7 11 C8.91088625 14.21028889 10 16.35165941 10 20.125 C8.72332098 23.79545218 7.28844884 24.98208821 4 27 C0.93171488 28.15060692 -0.37329204 28.24104152 -3.4375 27.0625 C-9.41002826 22.25534311 -13.48337124 16.13303006 -14.4375 8.5 C-13.88114307 4.0491446 -12.46413477 2.73908331 -9 0 C-5.4314543 -1.18951523 -3.60804584 -0.97717908 0 0 Z " fill="#1B3F95" transform="translate(104,39)"/>
<path d="M0 0 C2.5 1.5625 2.5 1.5625 4 4 C4.47551957 7.48025195 4.60396458 10.79207083 3 14 C1.02 13.34 -0.96 12.68 -3 12 C-3 10.02 -3 8.04 -3 6 C-3.99 6 -4.98 6 -6 6 C-6.98484108 7.74681293 -7.96266187 9.4975851 -8.9375 11.25 C-9.48277344 12.22453125 -10.02804688 13.1990625 -10.58984375 14.203125 C-11.76610835 16.53610409 -12.52101691 18.45350762 -13 21 C-11.05925139 20.72382467 -11.05925139 20.72382467 -9 20 C-8.34 19.01 -7.68 18.02 -7 17 C-5.02 17.66 -3.04 18.32 -1 19 C-1.37623037 21.63361256 -2.05214568 23.07220172 -3.625 25.25 C-6.929625 27.68498684 -8.97795456 27.49393541 -13 27 C-17.6 24.8 -17.6 24.8 -19 22 C-19.97374319 14.34916062 -17.22670646 9.29466547 -13 3 C-9.0468946 -1.57727994 -5.53646156 -1.76843135 0 0 Z " fill="#1B3F95" transform="translate(112,272)"/>
<path d="M0 0 C4.62 0 9.24 0 14 0 C18 4 18 4 18.56640625 6.21875 C18.55594247 12.32959879 18.55594247 12.32959879 15.875 15.5625 C12.63583344 17.18208328 10.57423953 17.3324874 7 17 C7 20.63 7 24.26 7 28 C5.02 28 3.04 28 1 28 C0.67 18.76 0.34 9.52 0 0 Z M7 5 C7 7.31 7 9.62 7 12 C8.32 11.67 9.64 11.34 11 11 C11.6814823 9.10820797 11.6814823 9.10820797 12 7 C11.34 6.34 10.68 5.68 10 5 C9.01 5 8.02 5 7 5 Z " fill="#1B3F95" transform="translate(163,287)"/>
<path d="M0 0 C4.95 0 9.9 0 15 0 C15 1.65 15 3.3 15 5 C11.7 5 8.4 5 5 5 C5.33 5.99 5.66 6.98 6 8 C6.9075 7.9175 7.815 7.835 8.75 7.75 C12 8 12 8 14.375 9.375 C16.90350969 13.45951565 16.85180955 17.33389283 16 22 C13.99308022 25.13581215 12.69806979 26.59649827 9.02734375 27.46875 C6.9375 27.625 6.9375 27.625 3 27 C0.5 24.75 0.5 24.75 -1 22 C-1 20.68 -1 19.36 -1 18 C0.98 18 2.96 18 5 18 C5.33 19.32 5.66 20.64 6 22 C6.99 22 7.98 22 9 22 C9.495 17.545 9.495 17.545 10 13 C8.35 13 6.7 13 5 13 C5 13.66 5 14.32 5 15 C3.35 15 1.7 15 0 15 C0 10.05 0 5.1 0 0 Z " fill="#EAEEF5" transform="translate(228,183)"/>
<path d="M0 0 C1.72945653 0.14235457 3.45855654 0.28904382 5.1875 0.4375 C6.63189453 0.55931641 6.63189453 0.55931641 8.10546875 0.68359375 C10.78649602 0.97666151 13.3662986 1.42703754 16 2 C16 3.65 16 5.3 16 7 C12.93109813 8.53445094 10.29905734 7.54984289 7 7 C6.67 8.32 6.34 9.64 6 11 C8.64 11.66 11.28 12.32 14 13 C13.67 14.65 13.34 16.3 13 18 C10.03 17.67 7.06 17.34 4 17 C3.67 20.63 3.34 24.26 3 28 C1.02 28 -0.96 28 -3 28 C-4.15652656 24.52681742 -3.85092924 21.93862721 -3.22265625 18.359375 C-2.94711914 16.75449219 -2.94711914 16.75449219 -2.66601562 15.1171875 C-2.46685547 14.00601563 -2.26769531 12.89484375 -2.0625 11.75 C-1.86720703 10.62335937 -1.67191406 9.49671875 -1.47070312 8.3359375 C-0.98773667 5.55593546 -0.49724577 2.77747735 0 0 Z " fill="#1B3F95" transform="translate(183,22)"/>
<path d="M0 0 C0.86625 -0.00773438 1.7325 -0.01546875 2.625 -0.0234375 C5.45910642 0.45202114 6.33631148 1.05961184 8 3.375 C8.72576561 7.6570171 8.97975022 9.94109473 6.5 13.5703125 C5.27781609 14.95036183 4.02071779 16.30048586 2.7265625 17.61328125 C0.80743322 19.4621075 0.80743322 19.4621075 -1 22.375 C1.97 22.375 4.94 22.375 8 22.375 C8 23.695 8 25.015 8 26.375 C2.72 26.375 -2.56 26.375 -8 26.375 C-6.88663381 18.58143665 -6.88663381 18.58143665 -3 15.3125 C0.39463335 12.20511708 0.39463335 12.20511708 2 7.875 C2 7.05 2 6.225 2 5.375 C0.68 5.375 -0.64 5.375 -2 5.375 C-2.33 6.365 -2.66 7.355 -3 8.375 C-4.65 8.375 -6.3 8.375 -8 8.375 C-8.36483917 3.87531691 -8.36483917 3.87531691 -6.80078125 1.73046875 C-4.43241629 -0.05222679 -2.94003586 -0.02625032 0 0 Z " fill="#F9FAFC" transform="translate(181,182.625)"/>
<path d="M0 0 C0 1.65 0 3.3 0 5 C-1.65 5.33 -3.3 5.66 -5 6 C-4.67 13.26 -4.34 20.52 -4 28 C-6.31 28 -8.62 28 -11 28 C-11.33 20.74 -11.66 13.48 -12 6 C-13.98 6 -15.96 6 -18 6 C-18 4.35 -18 2.7 -18 1 C-11.97403427 -0.0712828 -6.11090483 -0.09945415 0 0 Z " fill="#1B3F95" transform="translate(168,21)"/>
<path d="M0 0 C1.32 0 2.64 0 4 0 C4 9.24 4 18.48 4 28 C2.02 28 0.04 28 -2 28 C-2 21.73 -2 15.46 -2 9 C-3.65 9 -5.3 9 -7 9 C-7 7.68 -7 6.36 -7 5 C-6.21625 4.731875 -5.4325 4.46375 -4.625 4.1875 C-1.71885077 3.15185568 -1.71885077 3.15185568 0 0 Z " fill="#EFF1F7" transform="translate(217,182)"/>
<path d="M0 0 C2.31 0.33 4.62 0.66 7 1 C2.80851064 19.34042553 2.80851064 19.34042553 0 28 C-1.98 27.67 -3.96 27.34 -6 27 C-5.37547911 20.79786153 -4.0842258 15.00570586 -2.4375 9 C-2.20353516 8.12988281 -1.96957031 7.25976562 -1.72851562 6.36328125 C-1.15709256 4.24085272 -0.58085043 2.11986406 0 0 Z " fill="#1B3F95" transform="translate(202,26)"/>
<path d="M0 0 C1.98 0 3.96 0 6 0 C6.12873737 9.41213252 5.79822348 18.62087413 5 28 C2.69 28 0.38 28 -2 28 C-1.86064456 24.27056178 -1.71237699 20.54152904 -1.5625 16.8125 C-1.52318359 15.75740234 -1.48386719 14.70230469 -1.44335938 13.61523438 C-1.40146484 12.59365234 -1.35957031 11.57207031 -1.31640625 10.51953125 C-1.27974854 9.58214111 -1.24309082 8.64475098 -1.20532227 7.67895508 C-1.00374401 5.04885018 -0.57321679 2.57233586 0 0 Z " fill="#1B3F95" transform="translate(172,21)"/>
<path d="M0 0 C1.32 0 2.64 0 4 0 C4 8.58 4 17.16 4 26 C2.35 26 0.7 26 -1 26 C-1 19.73 -1 13.46 -1 7 C-2.65 7 -4.3 7 -6 7 C-6 6.01 -6 5.02 -6 4 C-4.7934375 3.566875 -4.7934375 3.566875 -3.5625 3.125 C-0.8673532 2.26737432 -0.8673532 2.26737432 0 0 Z " fill="#FEFEFE" transform="translate(153,183)"/>
<path d="M0 0 C1.32 0.66 2.64 1.32 4 2 C4.02690844 4.62506802 4.04679404 7.24986173 4.0625 9.875 C4.07087891 10.62136719 4.07925781 11.36773437 4.08789062 12.13671875 C4.11328125 17.7734375 4.11328125 17.7734375 3 20 C1.35 19.67 -0.3 19.34 -2 19 C-2.05380578 16.20807795 -2.09357669 13.4171859 -2.125 10.625 C-2.14175781 9.8309375 -2.15851563 9.036875 -2.17578125 8.21875 C-2.19335473 6.14507985 -2.10335168 4.07116759 -2 2 C-1.34 1.34 -0.68 0.68 0 0 Z " fill="#3454A0" transform="translate(135,186)"/>
<path d="M0 0 C1.32 0.66 2.64 1.32 4 2 C4.05397335 4.4377963 4.09365616 6.87439685 4.125 9.3125 C4.15013672 10.34793945 4.15013672 10.34793945 4.17578125 11.40429688 C4.21217794 15.17135396 4.14378864 16.78431704 2 20 C0.68 19.67 -0.64 19.34 -2 19 C-2.05380578 16.20807795 -2.09357669 13.4171859 -2.125 10.625 C-2.14175781 9.8309375 -2.15851563 9.036875 -2.17578125 8.21875 C-2.19335473 6.14507985 -2.10335168 4.07116759 -2 2 C-1.34 1.34 -0.68 0.68 0 0 Z " fill="#2E4F9D" transform="translate(117,186)"/>
<path d="M0 0 C0.33 4.29 0.66 8.58 1 13 C0.34 13 -0.32 13 -1 13 C-1 14.32 -1 15.64 -1 17 C-6.61 17 -12.22 17 -18 17 C-18 16.67 -18 16.34 -18 16 C-12.72 16 -7.44 16 -2 16 C-2 14.68 -2 13.36 -2 12 C-4.97 12 -7.94 12 -11 12 C-9.43171412 8.86342825 -8.22772509 6.87995316 -6 4.3125 C-5.484375 3.71050781 -4.96875 3.10851562 -4.4375 2.48828125 C-2.03412073 0 -2.03412073 0 0 0 Z " fill="#3857A2" transform="translate(191,193)"/>
<path d="M0 0 C1.98 0.495 1.98 0.495 4 1 C4 6.94 4 12.88 4 19 C2.68 19.33 1.36 19.66 0 20 C-1.5220959 18.4779041 -1.12959521 17.11789918 -1.1328125 15 C-1.13410156 14.195625 -1.13539063 13.39125 -1.13671875 12.5625 C-1.13285156 11.716875 -1.12898437 10.87125 -1.125 10 C-1.12886719 9.154375 -1.13273438 8.30875 -1.13671875 7.4375 C-1.13542969 6.633125 -1.13414062 5.82875 -1.1328125 5 C-1.13168457 4.2575 -1.13055664 3.515 -1.12939453 2.75 C-1 1 -1 1 0 0 Z " fill="#234598" transform="translate(198,186)"/>
<path d="M0 0 C1.98 0.495 1.98 0.495 4 1 C4 3.97 4 6.94 4 10 C2.35 9.67 0.7 9.34 -1 9 C-1.09765625 2.84765625 -1.09765625 2.84765625 -1 1 C-0.67 0.67 -0.34 0.34 0 0 Z " fill="#27499A" transform="translate(98,186)"/>
<path d="M0 0 C1.65 0 3.3 0 5 0 C5 2.31 5 4.62 5 7 C3.35 7 1.7 7 0 7 C0 4.69 0 2.38 0 0 Z " fill="#E6EAF3" transform="translate(165,203)"/>
<path d="M0 0 C1.65 0 3.3 0 5 0 C5 1.98 5 3.96 5 6 C3.35 6 1.7 6 0 6 C0 4.02 0 2.04 0 0 Z " fill="#F5F7FA" transform="translate(165,190)"/>
</svg>
