<?xml version="1.0" standalone="no"?>
<!DOCTYPE svg PUBLIC "-//W3C//DTD SVG 20010904//EN"
 "http://www.w3.org/TR/2001/REC-SVG-20010904/DTD/svg10.dtd">
<svg version="1.0" xmlns="http://www.w3.org/2000/svg"
 width="630.000000pt" height="368.000000pt" viewBox="0 0 630.000000 368.000000"
 preserveAspectRatio="xMidYMid meet">

<g transform="translate(0.000000,368.000000) scale(0.100000,-0.100000)"
fill="#000000" stroke="none">
<path d="M0 2280 l0 -1399 22 -12 c36 -19 56 -43 74 -84 9 -22 16 -41 15 -42
0 -2 -1 -4 0 -5 0 -2 2 -11 4 -21 2 -11 5 -20 7 -21 2 -1 22 -14 45 -29 24
-15 49 -27 56 -27 7 0 18 -5 23 -10 8 -8 15 -6 24 6 10 11 14 55 16 157 1 176
14 518 20 572 9 81 53 144 126 183 35 18 59 20 273 20 130 0 245 4 256 7 21 7
21 5 17 -54 -3 -46 -1 -62 10 -66 8 -3 17 -3 20 0 3 3 0 5 -7 5 -10 0 -11 17
-6 73 4 39 11 82 16 94 7 19 2 27 -29 50 -71 52 -187 148 -283 233 -95 84 -97
85 -143 82 -33 -3 -54 2 -79 17 -24 15 -51 21 -91 21 -130 0 -217 83 -217 206
0 102 56 177 151 205 25 7 48 18 52 24 5 6 8 6 8 -2 0 -7 10 -13 23 -13 37 -1
100 -35 134 -73 36 -41 56 -101 52 -158 -3 -29 3 -44 21 -64 21 -23 25 -35 23
-83 -2 -66 2 -72 152 -201 186 -160 280 -228 365 -260 81 -32 81 -32 291 -33
115 -1 212 2 216 6 4 3 -63 75 -148 159 -142 142 -246 262 -367 427 -40 55
-53 66 -85 71 -20 3 -45 13 -54 22 -10 8 -44 24 -76 35 -149 53 -233 179 -225
340 6 130 76 235 196 290 81 38 193 38 275 0 76 -36 150 -112 176 -183 28 -75
28 -175 -1 -252 -25 -69 -106 -154 -172 -184 -65 -28 -67 -48 -13 -128 164
-238 458 -548 572 -602 44 -21 165 -115 165 -128 0 -13 142 -102 245 -153 95
-48 324 -138 349 -138 8 0 40 31 70 69 66 83 73 88 81 61 5 -15 -2 -29 -27
-54 -19 -19 -43 -53 -53 -75 -10 -23 -24 -40 -30 -37 -7 2 -27 -9 -46 -25 -39
-33 -34 -41 35 -60 53 -14 90 -5 154 37 42 28 51 31 42 15 -6 -12 -17 -21 -24
-21 -18 0 -48 -35 -39 -45 5 -4 3 -5 -3 -2 -13 8 -74 -20 -74 -33 0 -5 8 -15
18 -22 19 -14 27 -38 13 -38 -17 0 -71 26 -66 32 3 3 -17 15 -45 26 -27 11
-50 17 -50 12 0 -4 6 -10 13 -13 6 -2 -1 -6 -18 -8 -29 -5 -30 -3 -30 32 0 33
2 36 18 27 23 -12 31 -5 23 20 -5 15 -17 21 -50 24 -24 1 -42 -1 -39 -5 3 -5
-3 -4 -14 1 -11 6 -75 22 -144 36 -153 31 -270 64 -414 117 -119 44 -355 154
-452 212 -34 19 -64 33 -67 30 -3 -4 -6 -26 -6 -49 l0 -43 562 -186 c310 -102
567 -190 571 -194 5 -5 4 -12 -2 -15 -5 -4 -299 89 -653 205 -354 116 -655
215 -670 220 -27 7 -45 -2 -34 -18 8 -13 115 -64 163 -78 13 -3 23 -11 23 -17
0 -7 4 -7 13 0 8 7 25 5 56 -10 24 -11 51 -21 61 -23 10 -2 28 -9 39 -15 12
-6 21 -7 21 -3 0 4 5 2 12 -5 7 -7 22 -12 33 -12 12 0 25 -3 29 -8 4 -4 11 -7
14 -8 4 0 14 -3 22 -7 8 -3 37 -13 65 -22 27 -9 55 -21 62 -27 7 -5 17 -7 23
-3 5 3 10 1 10 -6 0 -7 3 -9 7 -6 3 4 13 1 21 -6 9 -6 13 -7 9 -1 -3 6 15 1
41 -11 26 -13 65 -26 87 -30 21 -3 56 -15 76 -25 20 -11 48 -21 62 -24 13 -2
53 -16 88 -30 34 -14 67 -22 72 -19 6 3 7 2 4 -4 -6 -9 77 -38 101 -34 6 1 12
-2 12 -7 0 -5 10 -12 22 -15 12 -4 20 -9 16 -12 -3 -3 -16 -1 -29 4 -52 21
-381 122 -385 118 -4 -4 -6 -374 -2 -419 1 -10 6 -18 11 -18 5 0 5 -6 -1 -13
-8 -10 -6 -13 10 -14 12 -1 29 2 38 7 11 6 21 5 28 -2 8 -8 12 -8 12 -1 0 7
30 10 84 9 56 -1 82 2 78 9 -3 5 2 4 11 -4 9 -7 17 -10 17 -5 0 5 37 8 83 7
139 -4 207 -1 201 8 -4 7 50 22 79 22 9 0 17 5 17 11 0 6 5 4 10 -4 5 -8 10
-11 10 -6 0 5 8 2 17 -5 9 -8 14 -9 10 -3 -4 7 2 11 18 11 14 0 22 -3 19 -8
-3 -5 2 -6 10 -3 9 3 13 10 10 15 -3 5 2 9 10 9 9 0 16 6 16 14 0 8 10 16 23
18 15 2 22 10 23 26 1 16 -3 21 -12 18 -18 -7 -18 11 -1 28 8 8 20 10 32 5 11
-4 15 -8 9 -8 -7 -1 -11 -15 -9 -33 2 -23 8 -34 21 -36 15 -2 16 -1 5 6 -7 5
-12 14 -10 20 2 6 12 -1 22 -14 18 -24 18 -24 -7 -24 -28 0 -42 -15 -25 -26 8
-5 9 -3 4 6 -6 10 0 12 30 7 21 -3 43 -12 49 -18 8 -9 8 -10 -1 -5 -9 5 -11 2
-7 -8 3 -9 10 -13 15 -10 5 3 6 -3 2 -12 -4 -12 -3 -15 5 -10 17 10 15 -9 -3
-24 -12 -10 -15 -10 -15 3 0 9 -4 18 -8 21 -5 3 -6 -8 -4 -24 2 -18 9 -27 15
-23 6 4 7 1 3 -6 -5 -7 0 -21 9 -31 10 -11 15 -26 12 -33 -3 -8 0 -20 6 -27 9
-10 9 -11 0 -6 -9 5 -11 2 -6 -10 5 -13 3 -15 -8 -9 -12 8 -12 6 0 -8 14 -18
26 -23 16 -8 -3 5 -1 12 5 16 5 3 10 -3 10 -14 0 -11 -8 -24 -17 -29 -16 -9
-16 -11 0 -27 20 -19 22 -45 5 -46 -7 0 -4 -4 7 -9 18 -8 16 -10 -14 -14 -5 0
-13 -6 -18 -11 -4 -6 -4 -7 1 -3 5 4 15 3 23 -3 9 -9 13 -8 13 0 0 6 5 11 12
11 9 0 9 -3 0 -12 -16 -16 -15 -28 2 -28 15 0 16 -16 2 -39 -7 -11 -5 -13 7
-8 10 3 17 3 17 -2 0 -5 -12 -12 -27 -16 -21 -5 -24 -8 -13 -15 21 -13 -1 -33
-34 -32 -14 0 -23 -5 -20 -10 3 -5 12 -7 20 -4 8 3 14 1 14 -4 0 -6 5 -10 11
-10 5 0 7 5 3 12 -5 7 -2 9 9 5 12 -4 14 -2 10 11 -5 13 -3 14 6 6 10 -9 9
-18 -6 -40 -10 -15 -17 -29 -15 -31 9 -11 -1 -13 -13 -3 -11 9 -15 9 -15 1 0
-6 6 -14 14 -17 8 -3 12 -13 9 -25 -5 -18 22 -19 1706 -19 l1711 0 0 670 c0
531 -3 669 -12 667 -15 -2 -12 76 3 81 5 2 4 12 -1 23 -6 10 -7 19 -2 19 13 0
11 63 -2 79 -8 11 -8 13 2 7 6 -4 12 -3 12 2 0 5 -11 12 -25 14 -14 3 -25 1
-25 -4 0 -5 -4 -6 -10 -3 -9 6 -14 -6 -11 -30 1 -12 -54 -35 -82 -35 -22 0
-22 -9 0 -25 17 -13 17 -14 0 -32 -9 -11 -14 -22 -11 -26 3 -3 1 -14 -5 -24
-6 -10 -11 -13 -11 -6 0 6 -15 14 -32 18 -18 4 -47 11 -64 17 -26 9 -36 8 -57
-8 l-26 -19 66 -125 c36 -69 84 -154 107 -190 63 -97 63 -98 20 -60 -22 19
-39 37 -38 39 2 2 -12 23 -31 46 -19 23 -35 46 -35 51 0 5 -12 20 -25 33 -14
13 -28 34 -31 47 -3 13 -10 21 -15 18 -5 -3 -9 5 -9 18 0 13 -9 36 -19 52 -23
35 -98 79 -107 64 -4 -7 -2 -8 4 -4 17 10 15 -13 -3 -30 -19 -20 -19 -41 0
-41 8 0 15 5 15 10 0 6 3 7 7 4 3 -4 13 -1 21 6 12 10 12 6 -2 -20 -15 -31
-46 -46 -46 -23 0 7 -7 7 -21 -1 -13 -6 -19 -7 -15 -1 3 6 0 13 -6 15 -10 4
-9 8 2 16 12 9 13 12 1 20 -9 6 -10 11 -2 15 7 5 7 12 -1 26 -7 10 -16 16 -20
14 -4 -3 -8 2 -8 11 0 9 4 14 8 11 4 -2 6 11 4 30 -3 25 -11 37 -32 48 -21 10
-27 10 -24 2 3 -7 -2 -13 -11 -13 -21 0 -17 65 5 77 10 6 11 10 3 11 -13 2
-28 5 -40 9 -5 1 -11 2 -14 2 -65 -8 -144 -44 -159 -71 -6 -12 -14 -20 -18
-17 -31 18 -83 -52 -97 -129 -11 -56 -21 -72 -50 -77 -28 -6 -32 1 -12 21 10
11 8 11 -11 2 -12 -7 -27 -9 -32 -6 -5 3 -20 0 -32 -6 -14 -8 -80 -14 -173
-16 -258 -7 -280 -8 -286 -15 -3 -5 -24 -9 -48 -10 -23 -1 -44 -4 -46 -8 -2
-4 -19 -8 -37 -9 -18 -1 -49 -3 -68 -4 -19 -1 -37 -5 -40 -9 -3 -4 -44 -9 -90
-10 l-85 -3 -2 165 c-2 174 13 278 44 313 11 11 31 17 62 17 91 0 122 10 136
44 18 43 48 68 135 111 113 57 132 72 125 104 -3 14 7 82 21 151 15 69 30 143
34 165 4 22 17 68 28 102 22 62 22 62 3 141 -17 72 -18 89 -6 223 8 79 23 200
35 269 27 158 31 342 11 525 l-16 140 -2487 3 -2488 2 0 -1400z m1761 1211
c-11 -11 -23 -37 -27 -57 -11 -61 7 -233 33 -304 3 -8 7 -22 8 -31 2 -25 27
-109 32 -109 2 0 39 14 83 31 81 31 210 109 244 147 19 22 19 22 -10 22 -16 0
-44 -4 -61 -9 -18 -5 -35 -6 -37 -2 -3 4 0 8 7 8 17 1 160 25 176 30 11 3 10
7 -5 18 -25 19 -10 19 19 1 16 -10 65 -15 174 -18 84 -1 153 -6 153 -10 0 -17
30 -7 31 10 0 14 2 13 9 -4 5 -14 21 -24 42 -28 81 -15 213 -97 240 -150 6
-11 -5 -3 -25 19 -41 48 -109 86 -191 110 -49 14 -60 15 -67 4 -7 -11 -9 -11
-9 2 0 18 -22 23 -157 35 -55 5 -77 3 -90 -7 -11 -10 -14 -10 -9 -1 4 6 2 12
-3 12 -28 0 -4 -22 67 -61 73 -40 157 -95 213 -140 22 -17 32 -19 60 -11 19 5
43 6 54 2 15 -6 10 -9 -23 -11 -57 -5 -58 -21 -2 -32 52 -10 70 -28 70 -71 0
-17 9 -42 20 -56 l20 -25 1 25 c1 17 4 12 11 -18 6 -28 13 -40 21 -36 7 4 9 4
5 -1 -4 -4 0 -21 10 -37 13 -23 23 -28 49 -26 18 1 35 -1 38 -4 3 -3 -6 -5
-20 -5 -14 0 -28 -3 -31 -5 -2 -3 9 -33 24 -66 16 -34 32 -58 36 -54 4 3 4 -1
1 -10 -8 -20 12 -61 26 -53 5 4 9 -3 9 -14 0 -11 -4 -23 -10 -26 -5 -3 -11
-25 -11 -48 -2 -30 -3 -34 -6 -14 l-4 27 -29 -20 c-35 -25 -111 -58 -164 -71
-23 -5 -50 -12 -61 -15 -11 -2 -40 -7 -65 -10 -31 -4 -52 -14 -68 -33 -19 -21
-22 -22 -13 -4 10 21 10 21 -52 16 -34 -3 -66 -9 -70 -13 -12 -10 89 -43 104
-34 8 4 9 3 5 -4 -4 -7 -1 -12 6 -13 15 -1 22 -2 93 -22 45 -12 47 -14 23 -19
-15 -3 -25 -1 -22 3 3 5 -4 10 -15 10 -12 1 -24 2 -28 4 -5 1 -20 5 -36 9 -18
6 -33 4 -45 -5 -15 -12 -16 -12 -4 2 11 15 3 19 -75 38 -49 11 -108 24 -133
27 l-45 6 -45 -72 c-59 -96 -69 -99 -19 -6 40 75 40 76 17 76 -15 0 -41 -18
-73 -50 l-49 -50 -56 54 -55 54 -93 7 -94 7 12 -23 c10 -23 10 -23 -4 -5 -8
10 -17 22 -18 27 -2 4 -21 9 -43 11 -30 3 -41 9 -43 23 -2 14 0 16 5 8 5 -7
23 -16 41 -19 29 -6 32 -4 26 12 -6 18 -6 18 7 2 10 -12 37 -19 99 -24 l85 -6
-40 41 c-22 23 -41 37 -43 31 -6 -16 -32 -12 -32 5 0 8 5 15 12 15 7 0 -7 20
-31 44 -24 25 -52 44 -62 43 -10 -1 -15 -5 -13 -9 3 -4 -3 -8 -14 -8 -16 0
-22 12 -32 63 -14 70 -33 107 -55 107 -8 0 -15 6 -16 13 -1 6 -5 1 -9 -13 -7
-23 -8 -22 -9 11 -1 45 -16 60 -47 49 -15 -6 -24 -6 -24 0 0 6 9 10 19 10 15
0 3 17 -47 68 -102 102 -130 183 -77 218 14 9 28 14 32 10 3 -3 1 -6 -5 -6
-19 0 -42 -31 -42 -57 0 -15 12 -46 26 -71 20 -34 29 -41 36 -31 8 11 9 11 5
-2 -4 -10 10 -31 36 -56 84 -79 80 -80 72 24 -9 123 -7 126 105 148 49 10 90
20 90 24 -2 21 -47 181 -50 177 -7 -6 -14 94 -15 199 0 71 4 97 18 118 9 15
22 27 27 27 6 0 1 -9 -9 -19z m1868 -7 c91 -46 137 -147 111 -245 -17 -63 -92
-136 -149 -145 -23 -4 -45 -13 -48 -21 -5 -11 -7 -11 -17 1 -6 7 -28 17 -50
21 -57 10 -129 85 -145 153 -32 131 71 260 210 262 19 0 59 -12 88 -26z
m-2931 -21 c18 -9 48 -33 66 -55 112 -130 31 -324 -143 -345 -42 -5 -59 -1
-107 22 -132 65 -162 223 -62 331 65 71 157 88 246 47z m1495 -40 c-23 -2 -64
-2 -90 0 -26 2 -7 3 42 3 50 0 71 -1 48 -3z m-170 -10 c-7 -2 -19 -2 -25 0 -7
3 -2 5 12 5 14 0 19 -2 13 -5z m312 -4 c20 -5 9 -6 -30 -2 -33 3 -62 7 -64 9
-8 7 63 2 94 -7z m62 -15 c-3 -3 -12 -4 -19 -1 -8 3 -5 6 6 6 11 1 17 -2 13
-5z m40 -10 c-3 -3 -12 -4 -19 -1 -8 3 -5 6 6 6 11 1 17 -2 13 -5z m137 -56
c9 -12 16 -32 15 -43 0 -14 -3 -11 -10 10 -5 16 -16 36 -26 42 -9 7 -12 13 -5
13 6 0 18 -10 26 -22z m-144 -31 c0 -2 -10 -12 -22 -23 l-23 -19 19 23 c18 21
26 27 26 19z m144 -201 c-3 -21 -8 -35 -11 -32 -2 2 -1 20 3 40 3 21 8 35 11
32 2 -2 1 -20 -3 -40z m357 -112 c16 -34 39 -100 51 -148 l21 -86 31 47 c93
142 288 194 436 118 30 -16 58 -28 63 -27 4 1 7 -2 7 -7 0 -6 14 -25 30 -43
17 -18 41 -54 53 -80 12 -27 24 -48 27 -48 3 0 5 -40 5 -88 -2 -112 -33 -185
-106 -254 -187 -176 -488 -89 -560 162 -13 44 -14 104 -4 148 4 18 1 22 -17
23 l-23 2 23 4 c16 3 22 11 22 30 0 33 -29 145 -41 158 -5 5 -9 19 -9 31 0 30
-28 53 -42 33 -8 -11 -9 -11 -4 3 7 22 -26 32 -101 33 -29 0 -55 5 -57 11 -3
7 17 8 63 2 36 -4 72 -6 79 -3 6 2 12 0 12 -4 0 -5 7 -11 14 -14 17 -7 13 8
-17 63 -15 28 -16 31 -2 15 10 -11 30 -48 46 -81z m-1326 56 c-3 -5 0 -10 7
-10 10 0 10 -2 -1 -9 -8 -5 -20 -7 -28 -4 -11 4 -10 8 4 19 22 16 26 17 18 4z
m-72 -17 c-7 -2 -21 -2 -30 0 -10 3 -4 5 12 5 17 0 24 -2 18 -5z m41 -40 c4
-10 4 -14 0 -10 -4 4 -14 1 -22 -6 -13 -11 -14 -9 -1 11 17 26 15 26 23 5z
m-27 -125 c-2 -13 -4 -3 -4 22 0 25 2 35 4 23 2 -13 2 -33 0 -45z m1323 2 c0
-5 -2 -10 -4 -10 -3 0 -8 5 -11 10 -3 6 -1 10 4 10 6 0 11 -4 11 -10z m-1429
-143 c-10 -9 -11 -8 -5 6 3 10 9 15 12 12 3 -3 0 -11 -7 -18z m2292 -14 c-7
-2 -19 -2 -25 0 -7 3 -2 5 12 5 14 0 19 -2 13 -5z m80 0 c-7 -2 -19 -2 -25 0
-7 3 -2 5 12 5 14 0 19 -2 13 -5z m80 0 c-7 -2 -19 -2 -25 0 -7 3 -2 5 12 5
14 0 19 -2 13 -5z m77 -3 c0 -5 -7 -7 -15 -4 -8 4 -15 8 -15 10 0 2 7 4 15 4
8 0 15 -4 15 -10z m-2540 -147 c0 -31 -2 -54 -4 -52 -8 8 -12 118 -4 113 4 -3
8 -30 8 -61z m197 25 c-3 -7 -5 -2 -5 12 0 14 2 19 5 13 2 -7 2 -19 0 -25z
m2426 -40 c129 -72 143 -258 27 -349 -19 -16 -56 -34 -82 -41 -91 -24 -190 23
-236 113 -19 35 -23 56 -20 105 9 160 171 249 311 172z m-2416 0 c-3 -8 -6 -5
-6 6 -1 11 2 17 5 13 3 -3 4 -12 1 -19z m20 -80 c-3 -8 -6 -5 -6 6 -1 11 2 17
5 13 3 -3 4 -12 1 -19z m1389 -83 c25 -50 34 -82 33 -115 l-1 -45 -9 57 c-8
55 -58 170 -79 183 -5 3 -10 12 -10 18 1 20 30 -24 66 -98z m-1592 -1 c3 -8 2
-12 -4 -9 -6 3 -10 10 -10 16 0 14 7 11 14 -7z m1496 -12 c0 -5 -7 -17 -15
-28 -14 -18 -14 -17 -4 9 12 27 19 34 19 19z m-89 -19 c13 -16 12 -17 -3 -4
-17 13 -22 21 -14 21 2 0 10 -8 17 -17z m-230 -56 c-10 -9 -11 -8 -5 6 3 10 9
15 12 12 3 -3 0 -11 -7 -18z m269 9 c0 -2 -8 -10 -17 -17 -16 -13 -17 -12 -4
4 13 16 21 21 21 13z m-1140 -66 c6 -11 8 -20 6 -20 -3 0 -10 9 -16 20 -6 11
-8 20 -6 20 3 0 10 -9 16 -20z m967 4 c-3 -3 -12 -4 -19 -1 -8 3 -5 6 6 6 11
1 17 -2 13 -5z m-876 -21 c13 -16 12 -17 -3 -4 -10 7 -18 15 -18 17 0 8 8 3
21 -13z m1040 -14 c-18 -15 -37 -19 -85 -17 l-61 1 69 6 c49 4 72 11 80 23 5
9 13 15 16 12 3 -3 -6 -14 -19 -25z m-1373 -4 c-3 -3 -9 2 -12 12 -6 14 -5 15
5 6 7 -7 10 -15 7 -18z m292 -37 c19 -24 26 -37 17 -29 -19 15 -61 71 -54 71
2 0 19 -19 37 -42z m650 -3 c-24 -25 -46 -45 -49 -45 -3 0 15 20 39 45 24 25
46 45 49 45 3 0 -15 -20 -39 -45z m273 38 c-7 -2 -21 -2 -30 0 -10 3 -4 5 12
5 17 0 24 -2 18 -5z m-833 -38 c19 -19 32 -35 29 -35 -3 0 -20 16 -39 35 -19
19 -32 35 -29 35 3 0 20 -16 39 -35z m660 12 c0 -2 -10 -12 -22 -23 l-23 -19
19 23 c18 21 26 27 26 19z m-40 -50 c0 -2 -12 -14 -27 -28 l-28 -24 24 28 c23
25 31 32 31 24z m30 -40 c0 -2 -10 -12 -22 -23 l-23 -19 19 23 c18 21 26 27
26 19z m-925 -27 c10 -11 16 -20 13 -20 -3 0 -13 9 -23 20 -10 11 -16 20 -13
20 3 0 13 -9 23 -20z m290 0 c10 -11 16 -20 13 -20 -3 0 -13 9 -23 20 -10 11
-16 20 -13 20 3 0 13 -9 23 -20z m545 17 c0 -2 -10 -12 -22 -23 l-23 -19 19
23 c18 21 26 27 26 19z m-785 -67 c10 -11 16 -20 13 -20 -3 0 -13 9 -23 20
-10 11 -16 20 -13 20 3 0 13 -9 23 -20z m680 -10 c-3 -5 -12 -10 -18 -10 -7 0
-6 4 3 10 19 12 23 12 15 0z m-162 -57 c-7 -2 -21 -2 -30 0 -10 3 -4 5 12 5
17 0 24 -2 18 -5z m-66 -129 c-3 -3 -12 -4 -19 -1 -8 3 -5 6 6 6 11 1 17 -2
13 -5z m928 -25 c25 -6 42 -16 39 -21 -4 -6 2 -7 17 -3 24 7 24 7 4 -10 -16
-13 -16 -15 -3 -11 11 3 16 -1 15 -13 -1 -18 -18 -20 -51 -6 -19 8 -19 9 0 16
14 6 15 8 3 8 -9 1 -24 -9 -35 -21 -10 -12 -13 -18 -6 -14 7 4 12 1 12 -9 0
-11 -7 -16 -22 -14 -13 2 -29 -1 -37 -6 -10 -5 -16 -4 -19 3 -2 8 -11 4 -24
-10 -11 -13 -16 -16 -12 -8 7 13 5 13 -9 2 -9 -8 -22 -10 -28 -6 -7 4 -9 3 -6
-3 6 -10 -78 -38 -102 -34 -8 2 -12 -3 -8 -12 3 -9 -2 -13 -16 -12 -12 1 -26
-1 -32 -5 -23 -16 -44 -19 -38 -4 7 18 -7 18 -33 -1 -12 -8 -25 -11 -29 -7 -5
4 -5 1 -1 -5 10 -19 -19 -16 -38 3 -27 27 -18 51 17 45 5 -1 6 3 3 7 -6 10
135 75 277 127 106 39 104 39 162 24z m233 -78 l94 -31 75 40 c91 48 121 50
272 15 59 -13 155 -31 212 -40 124 -17 233 -49 259 -75 10 -10 20 -16 23 -14
2 3 2 -7 0 -21 -4 -16 -1 -25 8 -25 7 0 9 -3 6 -7 -4 -3 1 -12 11 -20 16 -12
16 -13 -2 -7 -15 6 -17 3 -11 -14 5 -16 2 -22 -9 -22 -9 0 -15 3 -15 8 3 19
-2 23 -16 12 -12 -10 -15 -10 -15 4 0 18 -15 22 -25 5 -4 -5 -12 -8 -18 -6
-18 6 -49 -12 -41 -24 4 -6 -4 -6 -17 1 -20 11 -25 10 -37 -8 -14 -21 -47 -20
-36 2 3 6 -2 2 -10 -8 -19 -23 -21 -40 -4 -30 7 4 8 3 4 -4 -4 -6 -13 -9 -21
-5 -9 3 -15 -1 -16 -11 -1 -9 -2 -24 -3 -33 -1 -12 10 -21 32 -28 17 -5 32
-13 32 -18 0 -5 -8 -6 -17 -2 -15 5 -15 3 2 -13 11 -11 23 -18 27 -15 4 2 13
-5 19 -16 7 -10 19 -17 26 -14 20 8 16 23 -4 17 -14 -5 -15 -4 -4 4 8 6 21 8
29 4 10 -3 13 -1 8 6 -4 7 -2 12 4 12 6 0 9 4 6 9 -4 5 3 7 14 4 11 -3 17 -9
14 -14 -3 -5 -10 -7 -15 -4 -14 10 -10 -5 6 -22 9 -8 13 -18 10 -21 -3 -4 -11
0 -16 8 -8 12 -9 9 -5 -10 5 -24 4 -24 -9 -6 -13 17 -19 15 -17 -5 2 -14 -108
-1 -134 16 -22 14 -26 15 -21 2 4 -11 0 -13 -15 -9 -13 3 -16 7 -8 12 7 4 8
10 3 13 -5 3 -15 2 -23 -3 -9 -6 -18 -3 -25 7 -10 13 -14 13 -20 3 -6 -9 -4
-11 5 -5 9 5 11 4 6 -4 -4 -6 -13 -8 -19 -4 -6 4 -25 8 -42 9 -16 1 -31 2 -32
4 -2 1 -6 3 -10 4 -5 1 -14 5 -22 10 -11 7 -13 5 -7 -9 7 -18 6 -18 -16 0 -13
11 -25 22 -28 24 -3 2 6 1 18 -2 23 -6 24 -5 5 15 -17 20 -17 21 0 15 9 -4 17
-2 17 3 0 6 5 10 11 10 8 0 8 -4 0 -13 -8 -10 -7 -19 5 -33 15 -18 15 -18 9 4
-9 32 9 27 21 -5 8 -24 11 -25 17 -10 4 11 3 16 -3 12 -12 -7 -12 -3 -4 19 3
9 13 16 21 16 8 0 12 4 9 8 -2 4 5 8 17 9 12 0 16 -1 10 -4 -7 -3 -13 -9 -13
-14 0 -6 4 -7 10 -4 6 3 7 -1 4 -9 -3 -9 -13 -16 -22 -16 -18 0 -8 -13 13 -16
8 -1 13 2 9 7 -3 5 0 9 5 9 6 0 11 10 11 23 1 21 3 20 31 -11 17 -19 29 -28
27 -20 -1 7 2 14 7 15 6 0 9 -3 8 -7 -1 -5 5 -7 15 -5 9 1 23 -3 31 -9 12 -9
12 -8 2 12 -11 21 -25 26 -61 24 -15 -1 -30 15 -30 33 1 6 5 2 11 -7 12 -22
39 -12 34 13 -3 12 0 17 7 13 6 -4 9 -1 6 6 -2 7 7 25 20 39 21 23 22 26 7 37
-17 13 -58 7 -49 -7 3 -5 -2 -9 -11 -9 -9 0 -13 5 -9 11 4 7 0 9 -14 5 -11 -4
-23 -3 -26 2 -4 8 -14 8 -58 3 -4 -1 -5 -8 -2 -16 4 -8 1 -15 -6 -15 -10 0
-10 -3 -1 -14 8 -10 9 -16 1 -21 -5 -3 -10 1 -10 10 0 10 -5 14 -12 9 -10 -6
-10 -4 0 7 6 7 12 19 12 26 0 10 -6 10 -25 -3 -15 -10 -25 -12 -25 -5 0 6 -4
11 -10 11 -5 0 -10 -12 -10 -28 0 -23 -4 -27 -30 -28 -16 -1 -28 2 -27 6 3 10
-12 12 -36 4 -9 -3 -14 -10 -11 -16 4 -7 2 -8 -4 -4 -12 7 -5 36 9 36 6 0 6 7
0 18 -5 10 -8 30 -7 45 2 18 -2 27 -10 27 -8 0 -14 7 -14 16 0 14 -3 14 -15 4
-9 -7 -13 -15 -11 -18 3 -3 -3 -17 -13 -31 -10 -14 -21 -33 -24 -41 -4 -12 -6
-11 -6 3 -1 11 -7 17 -13 14 -18 -6 -50 12 -43 24 4 5 2 9 -4 9 -5 0 -14 -6
-18 -14 -6 -12 -11 -10 -20 10 -6 14 -7 26 -2 30 5 3 9 0 9 -5 0 -6 3 -10 8
-9 4 1 24 -4 44 -11 37 -12 38 -12 68 22 22 26 36 34 51 30 16 -4 18 -8 7 -14
-13 -9 -11 -10 28 -14 12 -1 26 -5 32 -9 6 -3 13 -2 17 4 4 6 11 8 16 4 5 -3
7 -9 4 -14 -3 -5 0 -12 7 -16 7 -4 10 -4 6 1 -4 4 -3 14 3 22 9 10 15 10 25 2
15 -13 17 -9 8 16 -6 14 -8 14 -27 -2 -19 -16 -20 -16 -14 -1 5 15 2 16 -19 8
-33 -13 -33 -13 -27 13 5 21 5 21 -9 3 -12 -15 -17 -16 -23 -6 -6 9 -4 11 5 5
9 -5 11 -4 6 4 -4 6 -12 9 -17 6 -5 -4 -9 0 -10 7 0 10 -2 10 -6 1 -3 -9 -10
-10 -24 -3 -10 6 -19 7 -19 3 0 -4 -5 -1 -10 7 -5 8 -10 10 -10 4 0 -7 -7 -14
-15 -18 -8 -3 -14 -2 -14 2 3 19 -2 23 -15 13 -10 -8 -16 -9 -21 -1 -3 5 -13
10 -21 10 -8 0 -12 -5 -9 -10 4 -6 11 -7 17 -4 7 4 8 2 4 -5 -8 -12 -30 -1
-47 22 -3 5 -10 8 -15 8 -24 -2 -74 12 -74 22 0 6 -3 8 -6 5 -3 -4 -20 0 -39
7 -18 8 -35 11 -38 8 -4 -3 -13 0 -21 6 -10 8 -16 9 -21 1 -4 -7 -13 -7 -27 1
-16 9 -23 8 -29 -2 -7 -12 -9 -12 -9 0 0 9 -8 11 -24 7 -15 -4 -28 -1 -32 6
-5 8 -2 9 9 5 9 -3 19 -2 22 4 4 5 10 7 14 5 4 -3 6 8 5 24 -2 32 -16 34 144
-19z m-208 4 c0 -12 -19 -12 -23 0 -4 9 -1 12 9 8 7 -3 14 -7 14 -8z m179 -95
c50 -16 103 -36 119 -44 30 -16 39 -51 15 -60 -10 -4 -13 -2 -10 6 5 15 -51
17 -61 2 -4 -5 -14 -10 -22 -12 -10 -3 -9 2 5 18 16 18 17 23 5 30 -8 6 -21
10 -27 10 -7 0 -13 8 -14 18 -1 11 -4 9 -9 -8 -7 -21 -8 -22 -9 -5 -2 27 -43
56 -62 44 -11 -7 -9 -9 9 -9 15 0 22 -6 21 -17 0 -11 -3 -13 -6 -6 -3 10 -8 9
-20 -3 -9 -8 -22 -13 -29 -10 -8 3 -11 0 -7 -9 3 -8 10 -12 17 -8 6 3 7 2 3
-3 -5 -5 -12 -9 -15 -9 -4 -1 -25 -5 -47 -10 -22 -4 -51 -9 -63 -10 -13 -1
-28 -8 -33 -16 -5 -8 -9 -9 -9 -4 0 6 -5 2 -11 -7 -5 -10 -19 -18 -30 -18 -11
0 -18 -4 -15 -9 4 -5 -3 -7 -14 -4 -12 3 -20 0 -20 -6 0 -7 -4 -10 -8 -7 -5 3
-24 -5 -43 -18 -19 -13 -46 -22 -61 -22 -16 1 -28 -3 -28 -8 0 -5 -6 -1 -14 9
-13 18 -16 16 -61 -28 -61 -62 -68 -55 -10 9 25 27 45 44 45 39 1 -6 7 5 15
23 12 28 33 42 147 98 121 59 206 91 250 93 9 1 57 -12 107 -29z m988 -22 c-3
-8 -6 -5 -6 6 -1 11 2 17 5 13 3 -3 4 -12 1 -19z m-1673 -14 c5 -14 4 -15 -9
-4 -17 14 -25 10 -29 -15 -1 -9 -7 -20 -13 -23 -6 -4 -18 -22 -27 -40 -19 -37
-32 -37 -23 0 8 30 65 98 82 98 7 0 16 -7 19 -16z m21 -34 c3 -5 1 -10 -4 -10
-6 0 -11 5 -11 10 0 6 2 10 4 10 3 0 8 -4 11 -10z m996 -65 c11 -4 17 -11 13
-16 -3 -5 -10 -6 -16 -3 -8 5 -9 1 -5 -10 6 -15 5 -15 -17 1 -25 19 -27 28
-11 53 8 13 10 13 13 -2 2 -9 12 -20 23 -23z m12 18 c-3 -7 -9 -10 -14 -7 -14
8 -11 21 5 21 8 0 12 -6 9 -14z m252 -34 c-4 -5 -12 -9 -18 -8 -9 0 -8 2 1 6
6 2 9 10 6 15 -4 7 -2 8 5 4 6 -4 9 -12 6 -17z m475 11 c0 -5 -5 -10 -11 -10
-5 0 -7 5 -4 10 3 6 8 10 11 10 2 0 4 -4 4 -10z m-1886 -77 c-13 -11 -31 -27
-41 -35 -10 -7 -28 -25 -40 -39 l-22 -25 22 -25 c12 -14 33 -33 47 -42 28 -19
16 -22 -17 -4 -37 21 -66 65 -59 91 3 13 32 52 63 88 56 61 58 63 64 38 4 -18
0 -31 -17 -47z m1783 71 c-3 -3 -12 -4 -19 -1 -8 3 -5 6 6 6 11 1 17 -2 13 -5z
m-131 -12 c-3 -3 -1 -11 5 -18 8 -10 2 -9 -20 2 -17 9 -31 16 -31 17 0 1 12 3
26 3 14 1 23 -1 20 -4z m64 -29 c0 -10 6 -13 16 -9 9 3 12 2 9 -5 -4 -6 -13
-8 -20 -5 -7 2 -19 -1 -26 -7 -10 -10 -11 -9 -2 3 6 8 9 23 8 33 -2 9 1 15 6
11 5 -3 9 -12 9 -21z m58 3 c-7 -8 -15 -12 -17 -11 -5 6 10 25 20 25 5 0 4 -6
-3 -14z m-438 -57 c0 -5 -4 -9 -8 -9 -5 0 -9 7 -9 15 0 8 4 12 9 9 4 -3 8 -9
8 -15z m265 1 c3 -5 1 -10 -4 -10 -6 0 -11 5 -11 10 0 6 2 10 4 10 3 0 8 -4
11 -10z m13 -37 c-8 -10 -7 -13 2 -13 8 0 11 -2 8 -5 -3 -3 -12 -3 -20 0 -21
8 -18 34 3 32 14 -1 15 -4 7 -14z m-892 -35 c-7 -4 -40 -10 -72 -13 l-59 -6
55 23 c41 18 59 21 72 14 14 -8 15 -12 4 -18z m1019 -9 c-4 -5 -12 -9 -18 -8
-9 0 -8 2 1 6 6 2 9 10 6 15 -4 7 -2 8 5 4 6 -4 9 -12 6 -17z m45 11 c0 -5 -5
-10 -11 -10 -5 0 -7 5 -4 10 3 6 8 10 11 10 2 0 4 -4 4 -10z m1657 -5 c0 -8
-4 -15 -9 -15 -10 0 -11 14 -1 23 9 10 10 9 10 -8z m-2907 -54 c-37 -25 -150
-73 -162 -69 -5 2 12 16 39 31 28 14 53 24 57 20 3 -3 6 -1 6 6 0 14 61 42 74
33 5 -3 -1 -13 -14 -21z m701 -4 c-10 -9 -11 -8 -5 6 3 10 9 15 12 12 3 -3 0
-11 -7 -18z m-271 2 c0 -7 -10 -9 -25 -7 -14 3 -28 1 -32 -5 -3 -6 -1 -7 5 -3
17 10 15 -13 -3 -30 -8 -9 -15 -11 -15 -6 0 17 -28 21 -34 6 -3 -9 -1 -12 4
-9 12 7 12 3 4 -19 -3 -9 -10 -13 -15 -10 -5 3 -9 0 -9 -6 0 -7 -6 -10 -12 -8
-7 3 -40 -4 -73 -14 -33 -10 -61 -14 -63 -9 -2 5 -12 7 -22 4 -11 -3 -17 -9
-15 -14 3 -4 -3 -6 -14 -4 -10 2 -31 -3 -47 -11 -16 -9 -41 -16 -56 -17 -15
-1 -29 -9 -31 -18 -4 -15 -73 -45 -130 -56 -15 -3 -33 -14 -41 -24 -15 -22
-26 -15 -26 17 0 12 10 28 23 36 34 22 159 68 168 62 5 -3 9 -1 9 5 0 19 92
64 179 87 47 13 109 32 136 43 56 21 135 27 135 10z m308 -14 c-3 -3 -9 2 -12
12 -6 14 -5 15 5 6 7 -7 10 -15 7 -18z m1658 0 c9 -14 21 -47 25 -72 10 -52
24 -66 54 -56 42 14 280 -1 291 -18 3 -5 11 -9 17 -9 9 0 9 2 0 8 -9 6 -6 17
13 45 13 20 29 37 35 37 6 0 8 4 4 10 -3 5 4 19 15 30 l21 21 20 -25 c19 -24
18 -53 -1 -41 -5 3 -11 1 -15 -4 -3 -6 3 -15 14 -20 22 -12 18 -48 -8 -69 -46
-36 -73 -44 -115 -33 -22 7 -118 16 -211 21 -94 5 -178 12 -188 16 -14 5 -16
13 -10 43 5 20 8 60 7 89 -1 58 7 65 32 27z m-1778 0 c23 0 42 -3 42 -7 0 -4
7 -4 17 -1 11 4 14 3 9 -5 -4 -7 -1 -12 8 -12 9 0 16 5 16 12 0 6 3 9 6 5 4
-3 4 -13 1 -21 -5 -13 -12 -13 -38 -4 -18 6 -34 7 -38 2 -10 -14 -32 -16 -47
-3 -13 11 -19 5 -15 -15 1 -5 -5 -4 -13 3 -9 7 -14 17 -11 21 3 5 1 11 -5 15
-5 3 -10 1 -10 -6 0 -9 -3 -9 -14 0 -10 9 -16 9 -21 1 -5 -8 -11 -6 -19 6 -7
9 -18 14 -24 10 -6 -3 -14 -1 -17 5 -5 8 12 9 61 3 38 -5 88 -9 112 -9z m175
-20 c-7 -21 -12 -19 -10 4 0 11 5 18 9 15 4 -3 5 -11 1 -19z m57 1 c0 -3 -4
-8 -10 -11 -5 -3 -10 -1 -10 4 0 6 5 11 10 11 6 0 10 -2 10 -4z m-432 -31 c-3
-3 -9 2 -12 12 -6 14 -5 15 5 6 7 -7 10 -15 7 -18z m-678 -235 c-27 -17 -41
-11 -22 9 10 11 21 14 27 9 6 -6 5 -12 -5 -18z m-57 3 c-7 -2 -19 -2 -25 0 -7
3 -2 5 12 5 14 0 19 -2 13 -5z m464 -25 c5 -13 20 -23 34 -24 74 -7 129 -26
129 -46 0 -3 -17 -12 -37 -18 -21 -6 -44 -13 -51 -16 -9 -3 -2 -17 22 -46 20
-23 34 -44 31 -46 -6 -6 -518 158 -530 171 -7 7 -5 8 5 5 8 -3 74 -24 147 -47
l132 -41 40 21 40 20 -17 35 c-14 31 -14 36 -2 44 25 16 46 11 57 -12z m-773
3 c3 -4 42 -19 86 -32 44 -12 80 -27 80 -31 0 -5 -8 -4 -17 1 -10 5 -22 9 -26
9 -23 0 -155 47 -151 54 7 11 21 10 28 -1z m356 -21 c0 -5 -2 -10 -4 -10 -3 0
-8 5 -11 10 -3 6 -1 10 4 10 6 0 11 -4 11 -10z m-150 -56 c0 -2 -7 -4 -15 -4
-8 0 -15 4 -15 10 0 5 7 7 15 4 8 -4 15 -8 15 -10z m884 0 c27 -3 65 -12 84
-20 49 -20 28 -38 -39 -35 -63 3 -99 16 -99 36 0 9 -4 13 -10 10 -14 -8 -32 4
-24 16 3 6 13 7 23 4 9 -4 38 -9 65 -11z m519 -116 c-2 -5 -13 -8 -24 -8 -17
0 -24 -11 -20 -32 0 -5 -4 -8 -10 -8 -14 0 42 -47 61 -51 8 -2 29 5 47 14 18
9 43 17 58 17 18 0 25 5 25 20 0 18 7 20 69 20 39 0 73 -5 76 -10 4 -6 -5 -25
-20 -42 -15 -18 -24 -39 -22 -49 3 -10 -1 -23 -9 -30 -8 -6 -11 -15 -8 -20 3
-5 3 -18 -1 -29 -9 -28 -32 -14 -39 26 -9 48 -64 71 -106 44 -12 -7 -7 -16 27
-50 23 -22 46 -40 51 -40 4 0 17 -7 28 -15 18 -15 16 -15 -26 -10 -28 4 -66
21 -101 44 -58 39 -147 68 -175 57 -8 -3 -12 -11 -8 -17 4 -8 3 -9 -5 -5 -6 4
-9 11 -6 16 3 4 -4 6 -15 3 -14 -4 -20 0 -20 12 0 27 -29 68 -70 99 -39 29
-59 66 -36 66 7 0 34 -7 61 -17 48 -16 49 -16 67 7 10 12 18 28 18 35 0 9 20
5 69 -14 38 -14 67 -29 64 -33z m-1143 -11 c0 7 10 17 23 23 20 10 20 10 5 -3
-10 -8 -15 -17 -11 -20 3 -4 2 -7 -4 -7 -6 0 -9 -9 -6 -20 4 -15 9 -17 23 -10
14 7 18 6 16 -5 -1 -8 -6 -18 -11 -22 -4 -4 -5 -2 0 6 6 10 2 12 -14 6 -17 -5
-21 -2 -21 14 0 11 -4 23 -10 26 -5 3 -15 16 -21 28 -9 19 -8 19 10 -3 11 -14
21 -20 21 -13z m-90 -16 c0 -6 -9 -9 -20 -8 -11 1 -20 5 -20 9 0 4 9 8 20 8
11 0 20 -4 20 -9z m2793 -145 c-3 -4 -9 -2 -14 5 -13 22 -11 31 5 17 8 -7 12
-17 9 -22z m-1633 -12 c0 -2 -7 -4 -15 -4 -8 0 -15 4 -15 10 0 5 7 7 15 4 8
-4 15 -8 15 -10z m347 -150 c-3 -3 -12 -4 -19 -1 -8 3 -5 6 6 6 11 1 17 -2 13
-5z m1418 -194 c0 -2 46 -8 107 -14 15 -2 33 -8 41 -14 8 -7 17 -9 20 -5 4 3
7 2 7 -4 0 -6 18 -23 40 -38 42 -29 45 -49 5 -39 -14 3 -38 1 -54 -4 -26 -9
-35 -7 -65 16 -19 15 -60 43 -90 61 -60 38 -69 49 -33 45 12 -1 22 -3 22 -4z
m415 -5 c73 -12 96 -18 111 -31 8 -8 22 -14 30 -14 8 -1 1 -8 -15 -17 -21 -11
-43 -14 -75 -9 -25 3 -68 8 -96 11 -100 12 -195 44 -195 66 0 10 160 6 240 -6z
m-3145 -35 c3 -5 1 -10 -4 -10 -6 0 -11 5 -11 10 0 6 2 10 4 10 3 0 8 -4 11
-10z m23 -80 c7 -11 11 -20 9 -20 -2 0 -12 9 -22 20 -10 11 -14 20 -9 20 5 0
15 -9 22 -20z m4 -38 c8 10 9 10 5 -2 -2 -8 -11 -13 -18 -11 -8 2 -19 4 -26 4
-6 0 -9 6 -6 13 4 11 8 10 20 -2 13 -13 18 -13 25 -2z"/>
<path d="M2174 3193 c10 -3 42 -24 71 -47 66 -54 145 -99 228 -130 57 -22 66
-23 71 -9 6 16 -9 43 -25 43 -5 0 -19 9 -32 20 -12 11 -56 40 -97 64 -60 36
-77 43 -89 33 -12 -10 -13 -9 -7 2 13 21 -13 31 -79 30 -33 -1 -52 -3 -41 -6z"/>
<path d="M2555 3009 c-7 -10 10 -28 28 -29 12 0 8 17 -7 29 -11 9 -16 9 -21 0z"/>
<path d="M2757 2810 c-3 -12 -10 -19 -15 -16 -16 10 11 -69 31 -88 9 -10 17
-13 17 -7 0 6 10 11 23 10 22 0 21 0 -3 -10 -24 -10 -24 -10 25 -52 27 -23 53
-41 57 -40 4 2 7 -2 5 -8 -1 -6 4 -14 11 -16 10 -4 9 4 -3 33 -21 51 -43 84
-56 84 -6 0 -8 4 -4 10 3 5 -3 18 -15 30 -11 11 -20 23 -20 28 -1 4 -11 20
-24 35 -23 28 -23 28 -29 7z"/>
<path d="M1640 2733 c0 -17 6 -33 13 -36 17 -6 17 37 0 55 -10 9 -13 6 -13
-19z"/>
<path d="M2667 2628 c-16 -102 -54 -244 -63 -235 -2 2 0 16 6 31 14 38 13 63
-1 49 -13 -13 -42 -6 -33 8 3 5 -2 6 -10 3 -9 -3 -16 -1 -16 6 0 6 -4 9 -10 5
-5 -3 -7 -12 -3 -20 7 -20 -4 -19 -25 1 -9 10 -18 12 -20 6 -1 -5 -11 -8 -21
-5 -10 3 -22 0 -25 -6 -11 -17 -24 -13 -31 9 -5 16 -10 18 -26 10 -17 -10 -99
-125 -99 -141 0 -21 67 -32 158 -26 112 7 129 11 138 39 3 11 8 17 11 15 2 -3
-1 -15 -7 -28 -11 -19 -10 -21 5 -16 9 4 25 7 34 7 10 0 23 10 30 23 10 21 11
21 6 1 -5 -21 -4 -21 49 -9 134 31 227 80 239 124 3 12 2 19 -3 16 -4 -3 -10
5 -14 18 -3 12 -43 59 -90 105 -80 79 -85 82 -112 72 -23 -9 -26 -9 -17 1 9 9
9 15 -2 25 -7 8 -17 14 -22 14 -5 0 -16 -46 -26 -102z m70 5 c-3 -10 -5 -4 -5
12 0 17 2 24 5 18 2 -7 2 -21 0 -30z m-20 5 c-3 -8 -6 -5 -6 6 -1 11 2 17 5
13 3 -3 4 -12 1 -19z m17 -53 c3 -8 1 -15 -4 -15 -6 0 -10 7 -10 15 0 8 2 15
4 15 2 0 6 -7 10 -15z m-17 -57 c-3 -8 -6 -5 -6 6 -1 11 2 17 5 13 3 -3 4 -12
1 -19z m44 -85 c13 -16 12 -17 -3 -4 -17 13 -22 21 -14 21 2 0 10 -8 17 -17z
m-236 -63 c0 -7 -6 -15 -12 -17 -8 -3 -13 4 -13 17 0 13 5 20 13 18 6 -3 12
-11 12 -18z"/>
<path d="M2915 2560 c3 -5 8 -10 11 -10 2 0 4 5 4 10 0 6 -5 10 -11 10 -5 0
-7 -4 -4 -10z"/>
<path d="M2264 2368 l-19 -23 23 19 c21 18 27 26 19 26 -2 0 -12 -10 -23 -22z"/>
<path d="M3466 3476 c-75 -30 -115 -80 -124 -155 -4 -34 14 -121 26 -131 4 -3
12 -14 18 -25 7 -11 21 -20 32 -19 12 0 20 -4 19 -9 -3 -15 75 -38 118 -34 85
8 130 44 165 130 21 54 22 61 9 100 -8 23 -13 44 -12 47 1 3 -21 27 -48 54
-27 27 -49 46 -49 42 0 -4 -9 -2 -20 4 -34 18 -84 17 -134 -4z m121 -63 c3 -7
12 -13 19 -13 8 0 17 -8 20 -17 3 -10 11 -28 17 -41 8 -16 8 -25 -1 -34 -7 -7
-12 -22 -12 -35 0 -16 -6 -23 -20 -23 -16 0 -20 -7 -20 -35 0 -37 -10 -44 -30
-20 -17 20 -30 19 -57 -7 l-23 -21 0 40 c0 32 -4 42 -20 46 -11 3 -20 14 -20
24 0 10 -5 24 -12 31 -8 8 -8 15 3 28 8 9 13 25 11 36 -2 12 5 21 22 28 14 5
26 14 26 19 0 15 91 10 97 -6z"/>
<path d="M3492 3367 c-12 -13 -22 -33 -22 -45 0 -31 35 -62 68 -62 57 0 83 69
42 110 -27 27 -62 25 -88 -3z m66 -27 c12 0 13 -3 5 -11 -6 -6 -9 -17 -7 -24
3 -7 -1 -15 -9 -18 -17 -6 -44 9 -34 19 4 4 2 13 -4 21 -9 10 -8 13 5 13 9 0
17 8 17 18 1 16 2 16 6 0 2 -10 12 -18 21 -18z"/>
<path d="M549 3461 c-65 -20 -92 -43 -119 -103 -25 -54 -25 -111 -1 -163 20
-44 78 -101 101 -100 8 1 23 -4 33 -11 20 -13 74 -9 93 7 8 6 14 9 14 5 0 -12
54 21 79 48 14 14 21 26 17 26 -4 0 -1 7 7 15 9 8 18 33 22 56 24 139 -112
260 -246 220z m104 -118 c-2 -7 3 -12 10 -10 8 1 13 -20 15 -75 l3 -78 -71 0
-70 0 0 90 0 91 58 -3 c39 -2 56 -7 55 -15z"/>
<path d="M550 3270 l0 -80 60 0 60 0 0 65 c0 51 -3 65 -15 65 -8 0 -15 7 -15
15 0 11 -12 15 -45 15 l-45 0 0 -80z m83 33 c-13 -2 -35 -2 -50 0 -16 2 -5 4
22 4 28 0 40 -2 28 -4z m2 -23 l-20 -9 20 -1 c17 -2 16 -3 -5 -9 -31 -9 -68
-2 -49 9 8 6 6 9 -7 13 -10 2 4 5 31 5 36 0 45 -2 30 -8z m-2 -47 c-13 -2 -35
-2 -50 0 -16 2 -5 4 22 4 28 0 40 -2 28 -4z"/>
<path d="M3305 2920 c-84 -6 -136 -26 -168 -64 -10 -11 -15 -14 -11 -6 4 8 -5
4 -19 -9 -15 -13 -24 -28 -21 -32 3 -5 -3 -6 -12 -2 -12 4 -15 3 -10 -5 4 -7
1 -15 -8 -18 -11 -4 -13 -11 -5 -30 6 -17 6 -23 -1 -19 -6 3 -10 -1 -10 -9 0
-9 7 -16 15 -16 8 0 15 -4 15 -9 0 -5 -9 -7 -19 -4 -19 5 -47 -28 -35 -40 3
-3 6 -35 6 -71 1 -36 5 -66 9 -66 5 0 6 -6 3 -14 -3 -7 2 -21 11 -30 9 -9 13
-16 8 -16 -4 0 1 -7 11 -15 11 -8 16 -15 10 -15 -18 0 82 -83 123 -101 46 -20
169 -38 160 -23 -3 5 12 8 34 8 21 -1 39 2 39 7 0 5 7 9 15 9 8 0 31 17 52 37
20 21 33 31 28 24 -5 -8 2 -6 17 5 14 10 24 22 22 26 -2 4 1 10 7 13 17 11 51
97 46 117 -3 10 -1 16 4 12 8 -5 10 5 12 49 1 37 -17 87 -32 87 -11 0 -12 3
-4 8 15 9 12 44 -5 55 -7 5 -9 13 -6 19 5 7 2 9 -8 6 -8 -4 -15 0 -15 8 0 7 5
10 11 7 6 -4 5 1 -3 11 -8 9 -20 15 -27 12 -12 -5 -29 20 -25 37 1 5 -3 6 -9
2 -5 -3 -13 1 -16 9 -3 9 -10 13 -15 10 -5 -3 -9 0 -9 6 0 6 -4 8 -10 5 -5 -3
-10 -1 -10 6 0 7 -3 9 -7 6 -3 -4 -12 -2 -20 4 -7 6 -13 8 -13 4 0 -4 -6 -3
-12 2 -7 4 -49 6 -93 3z m124 -100 c21 -10 51 -33 67 -49 15 -16 32 -28 36
-25 5 3 8 2 7 -3 -3 -13 13 -63 20 -63 3 0 4 -35 1 -78 -6 -80 -26 -127 -69
-166 -11 -10 -18 -23 -14 -29 3 -5 1 -7 -4 -4 -6 4 -32 -3 -59 -14 -37 -17
-60 -20 -107 -16 -161 15 -260 178 -197 325 24 55 73 105 124 128 48 20 150
18 195 -6z"/>
<path d="M3265 2810 c-11 -4 -31 -20 -44 -34 -14 -14 -30 -26 -37 -26 -17 0
-27 -32 -12 -42 10 -6 9 -8 -2 -8 -22 0 -50 -52 -50 -94 0 -35 29 -76 64 -89
10 -4 16 -19 16 -41 0 -48 33 -69 115 -74 68 -5 108 10 158 57 48 44 70 100
56 139 -8 21 -11 22 -24 8 -8 -8 -15 -18 -15 -21 0 -4 -9 -18 -20 -32 -11 -14
-20 -31 -20 -37 0 -6 7 -2 15 8 14 19 15 17 15 -17 0 -40 -25 -62 -41 -36 -7
11 -9 11 -9 -2 0 -19 -16 -34 -46 -43 -22 -7 -20 -9 -53 104 -5 18 -13 25 -33
25 -59 0 -90 72 -47 111 20 18 20 19 2 32 -15 13 -15 14 -1 9 13 -5 16 0 14
21 -1 15 4 35 12 44 14 17 16 17 28 0 12 -16 13 -16 14 4 0 12 10 26 23 32 20
10 18 11 -18 11 -22 0 -49 -4 -60 -9z m-42 -107 c-7 -2 -19 -2 -25 0 -7 3 -2
5 12 5 14 0 19 -2 13 -5z"/>
<path d="M3893 2540 c-13 -5 -23 -7 -23 -4 0 15 -85 -76 -96 -103 -23 -54 -18
-133 12 -179 42 -65 86 -89 164 -89 57 0 73 4 107 28 22 15 49 44 61 65 26 48
31 135 9 177 -45 87 -156 136 -234 105z m147 -74 c6 -8 10 -25 8 -38 -2 -18
-10 -24 -37 -26 -38 -4 -90 -32 -59 -32 25 0 33 -21 13 -36 -16 -12 -16 -13 6
-18 13 -3 35 -7 49 -8 21 -3 25 -8 25 -38 0 -32 -2 -35 -30 -35 -21 0 -33 6
-39 21 -13 28 -64 59 -95 56 -31 -3 -51 14 -51 44 0 25 30 47 53 38 17 -6 87
33 87 50 0 33 48 47 70 22z"/>
<path d="M3915 2361 c-3 -5 -1 -12 5 -16 5 -3 10 1 10 9 0 18 -6 21 -15 7z"/>
<path d="M3041 1756 c-9 -10 -6 -12 14 -8 29 5 31 8 11 15 -8 3 -19 0 -25 -7z"/>
<path d="M3157 1712 c2 -10 11 -19 19 -19 11 0 11 4 -3 19 -9 10 -17 18 -19
18 -1 0 0 -8 3 -18z"/>
<path d="M3586 1628 c3 -5 10 -6 15 -3 13 9 11 12 -6 12 -8 0 -12 -4 -9 -9z"/>
<path d="M3630 1633 c0 -5 9 -14 20 -21 11 -7 20 -8 20 -2 0 5 -9 14 -20 20
-11 6 -20 7 -20 3z"/>
<path d="M3677 1623 c6 -16 8 -16 23 1 9 12 8 15 -8 13 -12 0 -18 -6 -15 -14z"/>
<path d="M3713 1605 c0 -8 4 -12 9 -9 5 3 6 10 3 15 -9 13 -12 11 -12 -6z"/>
<path d="M3743 1604 c0 -14 4 -15 42 -18 11 0 26 -5 32 -9 9 -6 11 -3 7 7 -3
9 -12 16 -20 16 -22 0 -28 1 -45 10 -11 6 -16 5 -16 -6z"/>
<path d="M4187 1603 c-2 -5 -3 -18 -2 -30 2 -27 -11 -31 -18 -5 -4 16 -5 16
-6 -1 0 -10 7 -20 17 -23 9 -3 25 -10 34 -15 13 -6 16 -5 12 5 -3 8 -11 17
-19 19 -8 3 -11 15 -8 31 5 25 -1 35 -10 19z"/>
<path d="M4095 1580 c3 -5 8 -10 11 -10 2 0 4 5 4 10 0 6 -5 10 -11 10 -5 0
-7 -4 -4 -10z"/>
<path d="M3637 1534 c-5 -6 1 -55 8 -63 2 -2 18 -5 35 -7 24 -3 30 0 30 16 0
20 -19 23 -32 6 -3 -5 -13 -2 -21 6 -11 10 -12 19 -5 26 6 6 6 12 0 16 -5 3
-12 3 -15 0z"/>
<path d="M3681 1453 c-1 -17 16 -25 25 -12 4 7 3 9 -4 5 -5 -3 -13 0 -15 6 -4
9 -6 10 -6 1z"/>
<path d="M3975 1290 c-3 -5 -1 -10 4 -10 6 0 11 5 11 10 0 6 -2 10 -4 10 -3 0
-8 -4 -11 -10z"/>
<path d="M4015 1279 c-9 -14 0 -22 18 -17 13 2 13 5 2 15 -10 9 -16 9 -20 2z"/>
<path d="M6146 3668 c17 -27 9 -67 -10 -55 -2 1 -14 -7 -26 -18 -12 -11 -24
-19 -26 -17 -11 6 -24 1 -21 -10 1 -7 -5 -12 -13 -13 -8 0 -14 -6 -12 -13 1
-7 -5 -12 -13 -12 -8 0 -15 5 -15 11 0 5 -4 8 -9 4 -6 -3 -8 -15 -6 -26 4 -17
2 -19 -10 -9 -8 7 -15 9 -15 5 0 -4 -8 -1 -17 6 -16 12 -16 12 -6 -1 6 -8 13
-19 15 -25 1 -5 10 -9 18 -8 8 1 3 -3 -12 -10 -30 -12 -39 -31 -10 -20 14 6
15 4 4 -9 -10 -13 -10 -18 -1 -24 8 -5 9 -3 4 7 -8 12 -6 12 8 1 9 -8 22 -10
29 -6 10 5 10 4 2 -5 -13 -14 -57 -24 -49 -10 4 5 1 9 -4 9 -6 0 -11 -5 -11
-11 0 -5 -4 -7 -10 -4 -5 3 -7 0 -4 -9 4 -11 0 -14 -15 -11 -12 2 -19 0 -16
-6 4 -5 11 -7 16 -4 5 4 9 0 9 -7 0 -10 2 -10 9 1 5 8 11 9 15 3 3 -6 15 -8
26 -5 18 5 19 3 10 -21 -7 -19 -6 -26 3 -26 8 0 7 -3 -3 -9 -8 -6 -18 -7 -22
-5 -4 3 -5 -1 -2 -9 7 -18 -20 -40 -43 -34 -14 4 -13 5 5 6 16 1 22 7 21 24
-1 15 -3 17 -6 6 -5 -20 -40 -32 -47 -15 -3 7 -5 7 -5 0 -1 -6 8 -19 19 -29
20 -18 28 -41 11 -30 -5 3 -13 0 -17 -6 -3 -6 -1 -15 6 -19 9 -5 8 -9 -4 -13
-8 -3 -16 -1 -18 4 -2 6 -12 1 -22 -10 -11 -12 -14 -21 -8 -21 7 0 12 5 12 12
0 6 3 9 6 6 3 -4 1 -15 -5 -26 -7 -14 -18 -18 -38 -15 -23 4 -25 2 -13 -7 12
-10 10 -11 -10 -6 -19 4 -31 -2 -52 -24 -27 -30 -48 -39 -48 -20 0 6 5 10 12
10 6 0 9 3 5 6 -10 11 -64 -28 -62 -45 1 -9 0 -10 -2 -3 -3 8 -11 11 -19 8 -8
-3 -12 -2 -9 3 3 5 1 13 -5 16 -6 4 -9 1 -8 -5 2 -7 -5 -14 -15 -15 -10 -2
-28 -12 -40 -22 -19 -17 -20 -17 -14 0 4 9 3 17 -2 17 -13 0 -19 -35 -9 -54 6
-10 5 -16 -2 -16 -5 0 -10 -4 -10 -10 0 -5 7 -6 17 -3 9 4 14 2 10 -3 -3 -6 7
-9 24 -8 16 1 29 -1 29 -6 0 -4 12 -6 28 -4 15 2 56 6 92 9 89 7 90 7 90 15 0
4 19 15 43 24 23 9 62 34 87 56 68 61 160 132 160 124 0 -4 9 3 19 15 11 12
23 23 28 23 21 2 85 51 95 73 6 13 15 22 19 19 5 -3 9 4 9 15 0 12 7 21 15 21
13 0 15 26 15 170 l0 170 -57 0 c-52 0 -55 -1 -37 -15 19 -15 19 -15 0 -8 -15
5 -18 3 -13 -10 4 -12 2 -14 -10 -10 -12 5 -14 3 -8 -7 5 -9 4 -11 -4 -6 -9 6
-9 11 1 24 11 13 11 14 -1 7 -11 -6 -13 -4 -9 7 4 8 0 15 -8 15 -7 0 -11 -4
-8 -9z m-109 -164 c-3 -3 -12 -4 -19 -1 -8 3 -5 6 6 6 11 1 17 -2 13 -5z m-6
-111 c13 -16 12 -17 -3 -4 -10 7 -18 15 -18 17 0 8 8 3 21 -13z"/>
<path d="M6085 3639 c-4 -6 -5 -12 -2 -15 2 -3 7 2 10 11 7 17 1 20 -8 4z"/>
<path d="M5795 3230 c-3 -5 1 -10 10 -10 9 0 13 5 10 10 -3 6 -8 10 -10 10 -2
0 -7 -4 -10 -10z"/>
<path d="M5876 3224 c-5 -14 -4 -15 9 -4 17 14 19 20 6 20 -5 0 -12 -7 -15
-16z"/>
<path d="M5500 3030 c-9 -6 -10 -10 -3 -10 6 0 15 5 18 10 8 12 4 12 -15 0z"/>
<path d="M6080 3027 c0 -5 -6 -5 -12 -1 -7 4 -10 4 -6 0 3 -4 9 -7 12 -7 3 1
15 -4 26 -9 11 -6 20 -7 19 -3 -4 27 1 25 44 -13 7 -6 29 -14 49 -18 20 -3 41
-13 48 -21 24 -29 40 -17 40 31 0 27 -4 43 -10 39 -5 -3 -10 -1 -10 5 0 6 -5
8 -11 4 -7 -4 -29 -8 -49 -9 -21 -1 -43 -6 -50 -10 -9 -5 -11 -4 -6 3 8 13 7
14 -47 16 -20 0 -37 -3 -37 -7z"/>
<path d="M950 2917 c-30 -9 -61 -25 -67 -34 -7 -9 -13 -13 -13 -7 0 5 -10 -2
-21 -16 -11 -14 -18 -18 -14 -10 4 8 -11 -3 -32 -25 -22 -22 -38 -42 -37 -44
2 -2 -4 -17 -12 -33 -9 -17 -12 -28 -7 -25 5 3 15 1 23 -4 12 -8 11 -9 -5 -7
-12 2 -19 -2 -18 -9 2 -7 -2 -12 -9 -10 -16 3 -15 -117 2 -169 18 -54 66 -121
99 -139 16 -8 31 -12 35 -10 3 3 4 2 1 -1 -8 -12 26 -37 55 -40 21 -3 30 1 35
15 3 10 17 31 30 45 35 38 78 35 122 -9 19 -19 44 -35 56 -35 22 0 87 45 87
60 0 5 11 21 26 35 14 14 23 29 20 33 -3 5 3 14 14 22 10 7 16 19 13 27 -3 7
-1 13 3 13 5 0 9 16 10 35 0 18 -3 32 -8 29 -4 -3 -8 0 -8 5 0 6 4 11 9 11 13
0 8 79 -5 84 -6 2 -11 15 -10 28 1 13 -5 29 -14 36 -13 12 -13 13 0 7 8 -4 4
3 -10 15 -14 12 -18 18 -10 14 8 -4 -3 10 -25 32 -22 21 -44 37 -48 36 -4 -1
-10 5 -13 13 -3 8 -10 12 -15 9 -5 -3 -9 0 -9 6 0 6 -4 8 -10 5 -5 -3 -10 -2
-10 4 0 6 -7 8 -15 5 -8 -4 -15 -2 -15 2 0 5 -10 10 -22 11 -83 8 -109 6 -158
-10z m150 -87 c11 -11 20 -29 20 -40 0 -26 -34 -60 -62 -60 -50 0 -76 63 -41
102 21 24 58 23 83 -2z m-123 -90 c8 -17 9 -28 1 -37 -22 -27 -90 -4 -80 27
15 46 58 52 79 10z m223 16 c6 -8 10 -25 8 -38 -4 -29 -34 -34 -74 -13 -16 8
-23 15 -16 15 6 0 12 6 12 13 0 33 48 49 70 23z m-349 -38 c32 3 47 -25 25
-46 -12 -13 -18 -13 -30 -2 -9 7 -16 19 -16 26 0 13 -13 19 -33 15 -5 -1 -6 3
-2 9 3 6 12 7 18 3 6 -4 23 -6 38 -5z m261 -20 c32 -32 38 -57 38 -152 l0 -96
-95 0 -95 0 -2 83 c-2 76 -2 77 -5 20 l-4 -63 -34 0 -33 0 -4 67 c-3 75 15
113 56 113 20 0 23 -4 19 -27 -4 -28 -4 -28 10 3 30 65 109 92 149 52z m168
-2 c0 -42 -41 -42 -52 -1 -4 17 0 21 23 23 25 2 29 -1 29 -22z m-66 -42 c19
-18 24 -41 28 -114 l3 -55 -37 4 -38 3 0 52 c0 28 -4 68 -9 89 -8 35 -7 37 14
37 13 0 31 -7 39 -16z m-348 -20 c-3 -9 -6 -37 -6 -64 0 -45 -2 -48 -28 -52
l-28 -4 6 52 c3 29 12 59 19 68 18 21 45 21 37 0z m420 -1 c14 -13 19 -29 17
-57 -3 -55 -9 -65 -32 -59 -16 4 -20 15 -23 69 -3 68 4 77 38 47z"/>
<path d="M6286 2524 c-4 -11 -14 -15 -31 -12 -19 4 -25 1 -25 -13 0 -15 -5
-16 -28 -10 -19 6 -31 4 -40 -6 -7 -7 -17 -11 -23 -8 -10 7 -100 -34 -111 -50
-4 -5 -11 -10 -15 -11 -38 -5 -75 -19 -90 -34 -25 -23 -68 -46 -59 -31 4 7 1
9 -8 5 -9 -3 -14 -9 -13 -12 1 -4 -2 -9 -8 -10 -5 -2 -16 -9 -24 -15 -7 -7
-19 -12 -25 -13 -6 0 -16 -2 -23 -2 -7 -1 -10 -9 -7 -17 4 -11 2 -13 -9 -9 -9
3 -21 -4 -31 -18 -9 -12 -16 -17 -16 -10 0 8 -7 6 -20 -5 -16 -14 -17 -20 -7
-32 10 -12 9 -13 -1 -7 -8 5 -25 -5 -47 -29 -19 -20 -39 -33 -45 -30 -5 3 -10
1 -10 -5 0 -6 8 -10 17 -8 10 2 18 -4 19 -15 1 -9 0 -11 -2 -4 -3 9 -14 12
-31 9 -20 -4 -24 -2 -18 9 8 12 6 12 -8 0 -20 -16 -12 -35 10 -26 13 5 14 3 3
-10 -10 -12 -15 -13 -21 -4 -5 9 -11 8 -23 -3 -8 -9 -12 -19 -8 -22 3 -4 -1
-4 -11 0 -9 3 -14 10 -11 15 3 5 -2 6 -10 3 -14 -5 -14 -8 -1 -21 20 -19 19
-21 -10 -18 -16 2 -25 -2 -25 -11 0 -8 -5 -14 -11 -14 -6 0 -8 7 -5 16 5 14 4
15 -9 4 -8 -7 -13 -16 -10 -20 7 -12 -42 -63 -54 -56 -6 4 -9 1 -5 -7 3 -8 -6
-23 -20 -34 -14 -11 -22 -23 -18 -27 3 -4 -2 -4 -13 0 -14 6 -17 4 -12 -8 4
-12 1 -14 -13 -11 -17 5 -17 7 -5 20 18 18 19 27 3 16 -20 -12 -39 -12 -31 -1
4 7 -2 9 -15 6 -24 -7 -28 1 -12 20 7 9 7 9 -2 2 -14 -12 -18 -70 -6 -70 5 0
7 -6 5 -12 -1 -7 5 -12 13 -10 12 3 13 1 3 -9 -7 -7 -13 -20 -12 -28 0 -11 3
-10 9 4 7 17 9 17 9 3 1 -11 9 -18 20 -18 22 0 36 26 18 34 -7 2 -2 5 11 5 13
1 21 5 18 9 -3 5 1 9 9 9 11 0 11 -4 -1 -22 -14 -22 -13 -23 31 -30 39 -5 56
-2 109 23 35 17 79 33 97 37 32 7 83 52 148 131 46 56 101 114 109 115 10 1
76 32 82 38 3 4 14 8 25 9 11 2 23 9 27 15 4 6 10 8 14 4 4 -4 13 -2 21 4 10
9 13 8 14 -2 0 -8 5 -3 10 10 9 23 10 23 29 6 11 -10 20 -13 20 -8 0 15 62 26
71 12 10 -17 59 -2 59 18 0 15 2 14 15 -3 8 -10 15 -14 14 -9 -3 25 2 35 19
35 14 0 15 -2 2 -10 -13 -8 -12 -10 3 -10 9 0 17 5 17 12 0 6 10 2 23 -10 13
-12 26 -20 29 -16 7 6 11 334 4 334 -2 0 -7 -7 -10 -16z m-616 -363 c0 -13
-26 -32 -33 -24 -8 7 11 33 24 33 5 0 9 -4 9 -9z m-438 -275 c7 4 8 2 4 -5 -9
-13 -26 -5 -25 12 0 9 2 8 6 -1 2 -6 10 -9 15 -6z"/>
<path d="M295 2414 c-81 -44 -109 -94 -106 -187 1 -59 55 -141 96 -149 11 -1
25 -9 30 -16 7 -9 27 -12 55 -10 44 3 45 4 47 38 1 19 0 29 -3 23 -9 -21 -45
-15 -51 7 -4 17 -12 20 -42 18 -35 -3 -36 -2 -36 31 0 26 -6 36 -22 44 -30 13
-29 35 2 49 22 10 24 16 19 44 -7 36 6 50 34 35 21 -11 36 -4 45 22 7 20 47
23 47 4 0 -24 21 -37 42 -26 28 15 49 -5 42 -41 -5 -22 -2 -29 15 -35 28 -8
27 -39 -1 -53 -22 -10 -21 -11 9 -11 22 -1 36 5 43 18 13 26 13 29 -7 33 -15
3 -15 4 0 19 15 15 14 20 -5 59 -30 60 -85 93 -162 97 -42 2 -70 -2 -91 -13z"/>
<path d="M416 2257 c3 -10 9 -15 12 -12 3 3 0 11 -7 18 -10 9 -11 8 -5 -6z"/>
<path d="M6094 2185 c8 -8 20 -15 27 -15 7 0 4 6 -7 15 -25 19 -40 19 -20 0z"/>
<path d="M5230 1935 c0 -2 7 -8 15 -15 12 -10 15 -10 15 2 0 8 -7 15 -15 15
-8 0 -15 -1 -15 -2z"/>
<path d="M6218 1735 c3 -30 9 -45 18 -45 21 0 32 -31 28 -75 -3 -29 -2 -36 6
-25 6 10 10 11 10 3 0 -7 5 -13 10 -13 6 0 10 35 10 85 0 65 -3 83 -13 79 -7
-2 -22 5 -34 16 -32 30 -39 25 -35 -25z"/>
<path d="M6095 1675 c-27 -8 -55 -22 -62 -31 -6 -9 -35 -27 -62 -40 -57 -26
-70 -41 -16 -18 19 7 43 14 54 14 32 0 111 42 111 59 0 14 1 14 10 1 6 -10 10
-11 10 -2 0 6 6 12 14 12 8 0 18 5 21 10 8 13 -19 11 -80 -5z"/>
<path d="M5393 1645 c-24 -65 -24 -69 -3 -38 12 18 20 40 18 50 -3 14 -7 10
-15 -12z"/>
<path d="M1280 1527 c0 -20 19 -35 112 -87 255 -145 624 -281 881 -325 36 -6
37 -5 25 14 -9 16 -10 23 -1 32 9 9 11 7 7 -7 -8 -30 24 -51 88 -59 56 -6 58
-6 68 21 6 15 9 28 8 29 -2 1 -49 19 -106 38 -66 23 -166 71 -273 132 -94 52
-175 96 -182 98 -13 2 -14 -27 -2 -57 8 -18 5 -19 -34 -12 -51 8 -221 61 -276
87 -43 20 -301 119 -310 119 -3 0 -5 -11 -5 -23z"/>
<path d="M972 1410 c0 -14 2 -19 5 -12 2 6 2 18 0 25 -3 6 -5 1 -5 -13z"/>
<path d="M519 490 c-19 -11 -84 -13 -124 -4 -16 4 -27 3 -23 -1 4 -4 3 -17 -1
-29 -6 -14 -4 -25 5 -34 8 -7 14 -22 14 -33 0 -11 4 -18 9 -15 5 3 17 -14 28
-39 10 -25 21 -45 26 -45 4 0 7 -10 7 -22 0 -13 9 -38 20 -55 11 -18 18 -33
15 -33 -3 0 4 -10 15 -22 24 -27 31 -35 90 -106 l43 -52 349 0 c324 0 348 1
350 18 2 28 4 36 13 62 5 14 10 32 10 40 1 8 7 28 14 45 7 16 10 37 8 47 -3
10 -2 16 3 13 4 -3 10 2 14 10 3 8 1 15 -5 15 -6 0 -7 5 -4 10 3 6 1 10 -5 10
-6 0 -3 11 6 25 14 22 15 30 4 50 -7 14 -17 25 -22 25 -5 0 -7 4 -4 8 2 4 -5
9 -16 9 -11 1 -28 9 -37 17 -10 9 -23 16 -30 16 -7 0 -9 5 -5 11 4 8 -1 9 -16
4 -17 -5 -21 -4 -15 5 6 10 4 11 -6 4 -8 -5 -35 -9 -61 -10 -26 -1 -55 -8 -65
-15 -15 -12 -16 -12 -10 3 4 12 2 15 -8 12 -7 -3 -24 0 -37 7 -22 12 -22 11
-8 -6 8 -10 10 -16 4 -12 -20 11 -64 16 -64 6 0 -6 -5 -7 -11 -3 -7 4 -26 9
-42 11 -17 1 -34 9 -39 16 -6 9 -8 9 -8 -2 0 -8 -3 -11 -7 -8 -3 4 -13 1 -21
-6 -11 -8 -14 -8 -9 0 10 15 -9 26 -45 25 -15 0 -26 2 -24 6 2 4 -12 6 -32 6
-21 -1 -41 2 -47 5 -5 4 -46 9 -90 10 -44 2 -82 4 -85 6 -3 2 -12 -1 -21 -5z"/>
<path d="M2836 352 c-3 -5 1 -9 9 -9 8 0 12 4 9 9 -3 4 -7 8 -9 8 -2 0 -6 -4
-9 -8z"/>
<path d="M2820 240 c-13 -8 -12 -10 3 -10 9 0 17 5 17 10 0 12 -1 12 -20 0z"/>
<path d="M2845 224 c-30 -25 -30 -25 -3 -13 15 6 29 18 32 25 7 18 6 18 -29
-12z"/>
<path d="M2885 221 c3 -5 -2 -17 -11 -25 -14 -15 -13 -16 7 -16 12 0 19 3 16
7 -4 3 -2 12 3 18 8 9 6 14 -5 19 -9 3 -14 2 -10 -3z"/>
<path d="M2590 180 c0 -5 5 -10 11 -10 5 0 7 5 4 10 -3 6 -8 10 -11 10 -2 0
-4 -4 -4 -10z"/>
<path d="M2830 172 c0 -11 7 -23 16 -26 13 -5 14 -4 6 7 -7 8 -9 16 -6 19 3 3
1 9 -5 13 -6 3 -11 -2 -11 -13z"/>
<path d="M2764 108 c-4 -7 -4 -10 1 -6 4 4 14 3 22 -4 7 -6 16 -8 19 -5 3 3
-3 10 -15 16 -15 8 -22 8 -27 -1z"/>
<path d="M2826 91 c-3 -4 -4 -18 -1 -30 3 -18 0 -20 -23 -16 -15 3 -21 2 -14
-1 6 -3 12 -12 12 -21 0 -12 2 -12 16 1 8 9 19 16 23 16 4 0 7 9 7 19 0 11 -4
17 -8 15 -4 -3 -8 0 -8 7 0 6 8 9 20 6 11 -3 18 -1 14 4 -7 11 -31 12 -38 0z"/>
<path d="M2621 44 c0 -11 3 -14 6 -6 3 7 2 16 -1 19 -3 4 -6 -2 -5 -13z"/>
<path d="M2673 45 c0 -8 4 -15 9 -15 4 0 8 7 8 15 0 8 -4 15 -8 15 -5 0 -9 -7
-9 -15z"/>
<path d="M2545 20 c-4 -6 -11 -8 -16 -5 -5 4 -9 1 -9 -4 0 -16 16 -13 30 4 7
8 10 15 7 15 -3 0 -9 -5 -12 -10z"/>
<path d="M0 9 c0 -5 5 -7 10 -4 13 8 13 15 0 15 -5 0 -10 -5 -10 -11z"/>
</g>
</svg>
