<?xml version="1.0" standalone="no"?>
<!DOCTYPE svg PUBLIC "-//W3C//DTD SVG 20010904//EN"
 "http://www.w3.org/TR/2001/REC-SVG-20010904/DTD/svg10.dtd">
<svg version="1.0" xmlns="http://www.w3.org/2000/svg"
 width="400.000000pt" height="200.000000pt" viewBox="0 0 400.000000 200.000000"
 preserveAspectRatio="xMidYMid meet">

<g transform="translate(0.000000,200.000000) scale(0.100000,-0.100000)"
fill="#000000" stroke="none">
<path d="M1890 1490 c0 -5 5 -10 10 -10 6 0 10 5 10 10 0 6 -4 10 -10 10 -5 0
-10 -4 -10 -10z"/>
<path d="M1912 1266 c-15 -40 -79 -102 -128 -122 -18 -8 -57 -14 -86 -15 -43
-1 -48 -2 -26 -9 58 -17 153 17 210 77 28 29 64 103 50 103 -4 0 -14 -15 -20
-34z"/>
<path d="M1506 1261 c-4 -5 -2 -12 3 -15 5 -4 12 -2 15 3 4 5 2 12 -3 15 -5 4
-12 2 -15 -3z"/>
<path d="M2300 510 c0 -5 4 -10 9 -10 6 0 13 5 16 10 3 6 -1 10 -9 10 -9 0
-16 -4 -16 -10z"/>
<path d="M1555 499 c-4 -5 5 -9 19 -9 23 0 26 -4 26 -32 0 -32 0 -32 -16 -10
-8 12 -19 22 -25 22 -12 0 -11 -51 1 -70 7 -12 10 -8 10 15 l1 30 16 -30 17
-30 7 25 c16 56 11 77 -21 88 -18 7 -32 7 -35 1z"/>
<path d="M1440 463 c0 -25 -1 -25 -18 -10 -27 25 -32 21 -32 -22 0 -45 20 -68
21 -24 0 27 1 27 11 6 15 -31 28 -29 28 5 0 15 3 37 6 50 4 13 2 22 -5 22 -6
0 -11 -12 -11 -27z"/>
<path d="M1495 480 c-16 -4 -22 -8 -12 -9 12 -1 17 -10 17 -32 0 -19 -7 -37
-17 -45 -16 -12 -15 -13 15 -14 17 0 32 5 32 10 0 6 -4 10 -10 10 -16 0 -12
60 5 66 8 4 15 10 15 15 0 10 -2 10 -45 -1z"/>
<path d="M1730 475 c-11 -13 -9 -20 10 -40 19 -20 21 -27 10 -40 -7 -8 -8 -15
-2 -15 5 0 15 7 22 15 11 13 9 20 -9 38 -27 30 -27 37 4 37 14 0 25 5 25 10 0
16 -46 12 -60 -5z"/>
<path d="M1888 483 c-19 -5 -32 -39 -26 -69 4 -24 32 -39 54 -29 17 8 16 9 -8
12 -44 7 -47 57 -5 72 23 9 11 19 -15 14z"/>
<path d="M2085 463 c-6 -24 -8 -26 -16 -10 -17 29 -29 19 -29 -23 0 -23 5 -40
11 -40 7 0 9 10 5 25 -4 14 -4 25 -1 25 3 0 10 -11 15 -25 15 -41 30 -29 30
25 0 56 -5 63 -15 23z"/>
<path d="M2208 483 c-19 -5 -32 -39 -26 -69 4 -24 32 -39 54 -29 17 8 16 9 -8
12 -44 7 -47 57 -5 72 23 9 11 19 -15 14z"/>
<path d="M2286 456 c-9 -21 -16 -48 -15 -60 0 -21 0 -21 9 2 12 27 27 28 35 2
3 -11 11 -20 16 -20 11 0 12 -6 -10 60 l-18 55 -17 -39z"/>
<path d="M2405 463 c-6 -24 -8 -26 -16 -10 -17 30 -29 18 -29 -29 0 -30 4 -43
11 -38 6 3 8 17 5 30 -8 32 2 31 14 -1 15 -41 30 -29 30 25 0 56 -5 63 -15 23z"/>
<path d="M2459 469 c-37 -37 -8 -104 37 -84 17 8 16 9 -8 13 -24 3 -28 8 -28
34 0 21 6 31 20 35 11 3 20 9 20 14 0 15 -19 10 -41 -12z"/>
<path d="M2615 439 c-6 -46 2 -81 12 -52 3 9 10 10 24 3 21 -12 26 -1 7 18 -9
9 -9 15 0 24 24 24 8 58 -28 58 -4 0 -11 -23 -15 -51z m45 22 c0 -5 -7 -14
-15 -21 -12 -10 -15 -10 -15 2 0 8 3 18 7 21 9 10 23 9 23 -2z"/>
<path d="M1639 454 c-7 -20 -6 -32 6 -51 21 -31 47 -26 60 11 8 24 6 31 -14
47 -31 25 -40 24 -52 -7z m49 -27 c-2 -11 -8 -22 -15 -24 -13 -5 -27 32 -18
46 10 17 36 -1 33 -22z"/>
<path d="M1944 456 c-13 -54 23 -91 57 -60 25 22 24 36 -4 62 -30 28 -45 28
-53 -2z m50 -19 c8 -12 7 -20 -1 -28 -16 -16 -33 -2 -33 27 0 28 17 28 34 1z"/>
<path d="M2530 435 c0 -49 15 -64 48 -49 15 7 14 8 -5 11 -28 5 -30 33 -3 33
11 0 20 5 20 10 0 6 -12 10 -27 10 -29 0 -22 15 12 23 13 3 9 5 -12 6 -33 1
-33 0 -33 -44z"/>
</g>
</svg>
