<?xml version="1.0" standalone="no"?>
<!DOCTYPE svg PUBLIC "-//W3C//DTD SVG 20010904//EN"
 "http://www.w3.org/TR/2001/REC-SVG-20010904/DTD/svg10.dtd">
<svg version="1.0" xmlns="http://www.w3.org/2000/svg"
 width="225.000000pt" height="225.000000pt" viewBox="0 0 225.000000 225.000000"
 preserveAspectRatio="xMidYMid meet">

<g transform="translate(0.000000,225.000000) scale(0.100000,-0.100000)"
fill="#000000" stroke="none">
<path d="M940 1675 c-6 -8 -10 -20 -7 -27 4 -8 6 -7 6 4 1 9 9 22 19 27 9 6
12 11 6 11 -6 0 -17 -7 -24 -15z"/>
<path d="M1093 1655 c0 -22 2 -30 4 -17 2 12 2 30 0 40 -3 9 -5 -1 -4 -23z"/>
<path d="M1177 1667 c5 -25 -21 -66 -33 -54 -5 4 -3 22 4 40 10 29 10 30 -3
13 -32 -42 -6 -87 27 -46 19 23 24 55 9 64 -4 3 -6 -5 -4 -17z"/>
<path d="M1210 1677 c0 -1 -4 -17 -10 -36 l-10 -34 31 29 31 29 -6 -30 -6 -30
11 28 c14 36 5 45 -22 21 -21 -19 -22 -19 -15 4 4 12 5 22 2 22 -3 0 -6 -1 -6
-3z"/>
<path d="M1361 1645 c-42 -48 -39 -54 5 -10 20 20 34 38 31 41 -2 3 -18 -11
-36 -31z"/>
<path d="M1030 1649 c-6 -11 -10 -25 -8 -30 2 -5 8 4 15 21 13 34 9 40 -7 9z"/>
<path d="M1060 1665 c0 -5 5 -17 10 -25 5 -8 10 -10 10 -5 0 6 -5 17 -10 25
-5 8 -10 11 -10 5z"/>
<path d="M1280 1633 c-21 -24 -22 -25 -2 -9 22 19 22 19 22 -8 0 -31 22 -43
53 -28 19 10 18 10 -10 5 -30 -5 -32 -4 -35 32 l-3 37 -25 -29z"/>
<path d="M921 1614 c0 -11 3 -14 6 -6 3 7 2 16 -1 19 -3 4 -6 -2 -5 -13z"/>
<path d="M1056 1605 c-3 -9 -11 -13 -17 -9 -8 5 -9 3 -4 -5 6 -10 11 -9 23 3
9 8 13 18 10 21 -3 3 -8 -1 -12 -10z"/>
<path d="M1001 1589 c-1 -9 -8 -23 -17 -30 -14 -11 -19 -10 -35 10 -11 13 -19
19 -19 13 0 -12 28 -42 39 -42 15 0 43 39 38 52 -4 9 -6 8 -6 -3z"/>
<path d="M1398 1578 c-10 -10 -14 -18 -9 -18 10 0 36 29 30 34 -2 1 -12 -6
-21 -16z"/>
<path d="M1425 1560 c-10 -11 -16 -22 -14 -24 2 -2 12 7 22 20 22 29 17 32 -8
4z"/>
<path d="M1338 1553 c6 -2 18 -2 25 0 6 3 1 5 -13 5 -14 0 -19 -2 -12 -5z"/>
<path d="M1470 1533 c-8 -2 -22 -7 -30 -10 -8 -4 -19 -5 -24 -4 -5 1 -4 -5 4
-13 7 -9 22 -16 34 -15 19 1 18 2 -4 8 -30 8 -18 17 35 26 l40 6 -25 -20 c-14
-11 -23 -22 -20 -24 9 -9 52 32 45 43 -6 10 -29 12 -55 3z"/>
<path d="M785 1490 c-4 -6 -4 -14 -1 -17 3 -4 6 -1 6 6 0 10 7 9 26 -4 21 -13
29 -14 38 -4 8 9 8 10 -1 5 -7 -4 -23 0 -37 9 -17 11 -26 13 -31 5z"/>
<path d="M787 1438 c9 -10 17 -18 19 -18 1 0 0 8 -3 18 -2 10 -11 19 -19 19
-11 0 -11 -4 3 -19z"/>
<path d="M747 1430 c12 -5 26 -17 32 -27 6 -10 11 -13 11 -7 0 15 -34 44 -51
43 -8 0 -4 -4 8 -9z"/>
<path d="M1086 1425 c-11 -8 -16 -18 -11 -22 4 -5 10 -2 12 5 5 14 63 17 63 3
0 -5 3 -17 7 -27 4 -12 3 -15 -5 -10 -8 5 -12 -1 -12 -16 0 -13 3 -18 8 -12 4
6 17 16 30 23 12 6 22 17 21 24 0 9 -2 9 -6 0 -6 -17 -23 -16 -23 0 0 18 -32
47 -51 47 -8 0 -23 -7 -33 -15z"/>
<path d="M1041 1404 c0 -11 3 -14 6 -6 3 7 2 16 -1 19 -3 4 -6 -2 -5 -13z"/>
<path d="M730 1404 c0 -14 33 -44 48 -44 7 0 12 4 12 10 0 5 -6 7 -14 4 -8 -3
-21 5 -30 18 -9 12 -16 18 -16 12z"/>
<path d="M1055 1380 c-3 -5 -2 -10 4 -10 5 0 13 5 16 10 3 6 2 10 -4 10 -5 0
-13 -4 -16 -10z"/>
<path d="M1573 1373 c-10 -10 -13 -14 -6 -9 7 5 28 12 46 16 29 7 30 8 6 9
-15 1 -35 -7 -46 -16z"/>
<path d="M1085 1370 c-3 -5 -1 -10 4 -10 6 0 11 5 11 10 0 6 -2 10 -4 10 -3 0
-8 -4 -11 -10z"/>
<path d="M1668 1362 c9 -10 19 -14 21 -9 2 5 -3 13 -10 18 -24 15 -30 10 -11
-9z"/>
<path d="M722 1354 c10 -10 20 -16 22 -13 3 3 -5 11 -17 18 -21 13 -21 12 -5
-5z"/>
<path d="M1550 1332 c0 -15 38 -35 53 -28 8 3 7 5 -2 5 -8 1 -23 8 -33 18 -10
9 -18 11 -18 5z"/>
<path d="M689 1293 c6 -13 16 -23 21 -23 6 0 10 -5 10 -11 0 -7 -7 -8 -17 -4
-62 26 -70 10 -23 -47 l30 -37 -26 -3 -26 -3 23 -20 c18 -15 20 -15 10 -2 -11
14 -11 17 2 17 28 0 27 17 -3 50 -41 44 -41 63 0 38 15 -10 23 -9 39 6 12 11
20 29 20 40 -2 20 -2 20 -6 -1 -2 -13 -8 -23 -13 -23 -5 0 -19 10 -31 23 l-21
22 11 -22z"/>
<path d="M867 1277 c-16 -24 -15 -28 4 -73 28 -63 19 -131 -29 -214 -5 -8 -17
-31 -27 -50 -18 -35 -18 -35 2 -17 11 9 25 17 32 17 7 0 10 4 7 9 -6 9 28 44
35 36 3 -2 5 4 6 13 1 9 9 37 18 62 21 55 16 137 -12 200 l-19 43 -17 -26z"/>
<path d="M1673 1293 c9 -2 23 -2 30 0 6 3 -1 5 -18 5 -16 0 -22 -2 -12 -5z"/>
<path d="M1595 1280 c-18 -8 -17 -9 7 -9 15 -1 30 4 33 9 7 12 -12 12 -40 0z"/>
<path d="M1160 1243 c0 -5 5 -15 10 -23 7 -12 9 -10 7 8 -1 19 -17 33 -17 15z"/>
<path d="M1618 1239 c-10 -5 -18 -15 -18 -22 0 -8 3 -9 8 -1 4 6 16 16 27 22
11 6 16 11 10 11 -5 0 -18 -4 -27 -10z"/>
<path d="M960 1225 c-19 -23 -8 -25 14 -4 11 11 15 19 9 19 -6 0 -16 -7 -23
-15z"/>
<path d="M1012 1219 c-7 -10 -19 -19 -27 -19 -8 0 -15 -4 -15 -10 0 -5 5 -10
10 -10 6 0 10 -4 10 -9 0 -14 -30 -7 -41 10 -5 8 -9 9 -9 2 0 -6 11 -20 25
-31 14 -11 25 -26 26 -33 0 -8 4 -4 9 9 9 21 40 32 40 13 0 -5 10 -8 23 -7 22
1 23 3 14 49 -7 33 -13 44 -19 35 -7 -10 -11 -10 -21 4 -12 15 -14 15 -25 -3z"/>
<path d="M1204 1215 c-4 -8 -12 -15 -20 -15 -12 0 -12 -4 -2 -21 9 -15 10 -23
2 -26 -6 -2 -20 -11 -30 -19 -18 -14 -17 -14 6 -3 35 17 78 21 83 6 2 -6 3 -3
1 8 -2 11 1 26 5 34 6 9 2 20 -10 32 -23 23 -28 23 -35 4z"/>
<path d="M597 1189 c7 -7 15 -10 18 -7 3 3 -2 9 -12 12 -14 6 -15 5 -6 -5z"/>
<path d="M630 1165 c0 -8 2 -15 4 -15 2 0 6 7 10 15 3 8 1 15 -4 15 -6 0 -10
-7 -10 -15z"/>
<path d="M1615 1168 c4 -9 14 -20 23 -24 13 -6 6 -9 -23 -14 -36 -7 -35 -7 22
-9 34 0 64 3 68 8 5 9 -45 51 -62 51 -4 0 8 -10 27 -23 28 -17 31 -23 16 -25
-10 -2 -31 9 -48 25 -17 16 -27 21 -23 11z"/>
<path d="M1271 1133 c7 -12 15 -20 18 -17 3 2 -3 12 -13 22 -17 16 -18 16 -5
-5z"/>
<path d="M640 1136 c0 -2 8 -10 18 -17 15 -13 16 -12 3 4 -13 16 -21 21 -21
13z"/>
<path d="M1107 1119 c7 -7 15 -10 18 -7 3 3 -2 9 -12 12 -14 6 -15 5 -6 -5z"/>
<path d="M687 1099 c7 -7 15 -10 18 -7 3 3 -2 9 -12 12 -14 6 -15 5 -6 -5z"/>
<path d="M1245 1082 c-3 -10 -16 -13 -39 -10 -33 4 -34 2 -41 -37 -6 -36 -8
-38 -19 -22 -16 21 -25 21 -48 0 -17 -15 -18 -15 -19 8 0 13 -3 18 -6 11 -3
-7 0 -25 5 -40 8 -23 5 -33 -18 -60 -24 -29 -28 -31 -40 -17 -7 9 -23 21 -34
27 -12 6 -6 -3 13 -21 l34 -32 31 34 c23 25 39 34 57 32 21 -2 28 3 38 31 7
19 18 34 25 34 8 0 16 9 19 20 7 25 24 26 32 1 3 -11 13 -22 22 -25 12 -5 14
-1 10 21 -3 15 -1 35 3 44 6 11 5 16 -5 16 -8 0 -17 -7 -20 -15z"/>
<path d="M1620 1092 c0 -10 34 -34 63 -45 9 -3 17 -2 17 3 0 6 -8 10 -18 10
-10 0 -28 9 -40 20 -12 12 -22 17 -22 12z"/>
<path d="M1650 1096 c0 -2 11 -6 25 -8 13 -3 22 -1 19 3 -5 9 -44 13 -44 5z"/>
<path d="M630 1060 c0 -5 7 -7 15 -4 8 4 15 8 15 10 0 2 -7 4 -15 4 -8 0 -15
-4 -15 -10z"/>
<path d="M1417 1040 c8 -18 12 -41 9 -55 -5 -20 -1 -27 23 -39 l29 -15 -18 58
c-21 70 -27 81 -45 81 -11 0 -11 -5 2 -30z"/>
<path d="M654 1042 c3 -6 0 -13 -6 -15 -7 -3 -1 -6 15 -6 38 -1 34 -21 -5 -21
-28 -1 -30 -2 -15 -11 14 -8 24 -6 43 6 14 9 24 18 22 19 -37 25 -59 36 -54
28z"/>
<path d="M1627 1030 c-3 -11 -3 -20 -1 -20 2 0 8 9 14 20 6 11 7 20 2 20 -6 0
-12 -9 -15 -20z"/>
<path d="M915 1020 c-4 -6 3 -10 14 -10 25 0 27 6 6 13 -8 4 -17 2 -20 -3z"/>
<path d="M966 1013 c-6 -14 -5 -15 5 -6 7 7 10 15 7 18 -3 3 -9 -2 -12 -12z"/>
<path d="M1668 1013 c7 -3 16 -2 19 1 4 3 -2 6 -13 5 -11 0 -14 -3 -6 -6z"/>
<path d="M1401 973 c-1 -22 -10 -28 -40 -24 -7 2 -10 -2 -7 -8 4 -5 2 -12 -4
-16 -5 -3 -10 2 -10 13 0 14 -7 19 -30 20 -24 1 -30 -3 -30 -21 0 -12 -3 -32
-6 -43 -5 -20 -2 -21 36 -20 26 1 44 -3 47 -10 3 -9 10 -7 24 7 13 13 33 19
62 19 l42 1 -36 32 c-20 18 -39 41 -42 52 -4 18 -5 18 -6 -2z"/>
<path d="M696 965 c18 -14 18 -14 -6 -15 -14 -1 -19 -4 -12 -7 7 -3 20 -2 28
1 13 5 14 9 4 21 -7 8 -17 15 -23 15 -6 0 -2 -7 9 -15z"/>
<path d="M1645 970 c-29 -6 -28 -6 14 -13 24 -4 46 -5 49 -2 3 3 -2 5 -10 5
-9 0 -18 4 -20 8 -1 4 -16 5 -33 2z"/>
<path d="M900 960 c0 -6 -7 -10 -15 -10 -8 0 -15 -6 -15 -14 0 -7 -7 -19 -15
-26 -21 -17 -19 -30 5 -30 12 0 20 -7 21 -17 0 -11 3 -13 6 -5 2 7 22 12 44
12 38 0 46 -9 40 -43 -1 -5 3 -6 8 -3 5 4 19 -6 30 -20 12 -15 44 -44 73 -65
57 -43 111 -51 158 -24 25 14 24 14 -18 15 -24 0 -55 6 -70 14 -27 14 -92 76
-79 76 3 0 -21 27 -53 60 -33 34 -60 65 -60 70 0 6 -4 10 -10 10 -6 0 -6 -9 0
-26 17 -44 13 -54 -24 -54 -34 0 -34 0 -25 32 5 17 14 35 20 38 7 5 5 9 -5 13
-9 4 -16 2 -16 -3z"/>
<path d="M591 936 c-1 -18 35 -86 45 -86 3 0 2 5 -1 10 -3 6 2 10 12 11 12 1
10 3 -7 8 -17 4 -29 18 -37 41 -7 20 -12 27 -12 16z"/>
<path d="M1180 922 c21 -32 23 -32 41 -16 10 9 19 20 19 23 0 3 -8 -2 -17 -12
-16 -16 -19 -15 -41 11 l-24 27 22 -33z"/>
<path d="M1607 944 c-12 -12 -8 -22 9 -20 17 1 62 -50 52 -59 -3 -4 -18 6 -34
22 -15 15 -22 20 -15 11 11 -15 11 -18 -3 -18 -25 0 -19 -15 7 -16 12 0 30 -4
40 -8 12 -6 17 -4 17 8 0 21 -63 90 -73 80z"/>
<path d="M702 896 c-18 -7 -30 -15 -26 -19 6 -6 64 19 64 28 0 3 -1 4 -2 4 -2
-1 -18 -7 -36 -13z"/>
<path d="M1070 872 c0 -4 17 -6 38 -4 58 5 62 10 10 11 -27 1 -48 -3 -48 -7z"/>
<path d="M1317 840 c-3 -14 -9 -43 -12 -65 -8 -47 -34 -101 -72 -145 l-28 -33
27 6 c22 6 27 3 32 -19 6 -22 9 -24 22 -13 34 28 57 94 62 172 3 49 8 74 13
65 7 -10 9 -9 9 5 0 10 -8 17 -19 17 -11 0 -21 8 -24 18 -3 13 -5 11 -10 -8z"/>
<path d="M1177 792 c1 -8 3 -16 3 -18 0 -2 7 -4 15 -4 8 0 15 5 15 10 0 6 -6
10 -14 10 -8 0 -16 3 -19 8 -2 4 -2 1 0 -6z"/>
</g>
</svg>
